<?xml version="1.0" standalone="no"?>
<!DOCTYPE svg PUBLIC "-//W3C//DTD SVG 1.1//EN" "http://www.w3.org/Graphics/SVG/1.1/DTD/svg11.dtd" >
<svg>
<metadata>
Created by FontForge 20090914 at Wed Jul 17 21:07:00 2013
 By www-data
</metadata>
<defs>
<font id="CFPBMinicons" horiz-adv-x="920" >
  <font-face 
    font-family="CFPB Minicons"
    font-weight="400"
    font-stretch="normal"
    units-per-em="1000"
    panose-1="0 0 0 0 0 0 0 0 0 0"
    ascent="750"
    descent="-250"
    bbox="84.8057 -156.004 992 750.443"
    underline-thickness="50"
    underline-position="-50"
    unicode-range="U+0030-U+E0447"
  />
<missing-glyph horiz-adv-x="500" 
 />
    <glyph glyph-name=".notdef" horiz-adv-x="500" 
 />
    <glyph glyph-name="space" unicode="&#xa0;" horiz-adv-x="500" 
 />
    <glyph glyph-name="space" unicode=" " horiz-adv-x="500" 
 />
    <glyph glyph-name="zero" unicode="0" horiz-adv-x="1076" 
d="M538 750c62 0 120.5 -11.833 175.5 -35.5s103 -56 144 -97s73.5 -89 97.5 -144s36 -113.833 36 -176.5s-12 -121.5 -36 -176.5s-56.5 -103 -97.5 -144s-89 -73.333 -144 -97s-113.5 -35.5 -175.5 -35.5c-62.667 0 -121.5 11.833 -176.5 35.5s-103 56 -144 97
s-73.333 89 -97 144s-35.5 113.833 -35.5 176.5s11.833 121.5 35.5 176.5s56 103 97 144s89 73.333 144 97s113.833 35.5 176.5 35.5zM675 214l4 35c1.33301 12 2 23.667 2 35c0 10 -0.666992 20.833 -2 32.5l-4 34.5c-2.66699 12.667 -5.83398 24.167 -9.50098 34.5
s-8.16699 20.166 -13.5 29.499c-10 18.667 -24.667 34.334 -44 47.001c-18.667 12.667 -42 19 -70 19c-29.333 0 -52.666 -6.33301 -69.999 -19c-19.333 -12.667 -34.333 -28.334 -45 -47.001c-4.66699 -9.33301 -9 -19.166 -13 -29.499s-7 -21.833 -9 -34.5l-4 -34.5
c-1.33301 -11.667 -2 -22.5 -2 -32.5c0 -11.333 0.666992 -23 2 -35l4 -35c2 -12.667 5 -24.167 9 -34.5s8.33301 -20.166 13 -29.499c10.667 -18.667 25.667 -34.334 45 -47.001c17.333 -12.667 40.666 -19 69.999 -19c28 0 51.333 6.33301 70 19
c19.333 12.667 34 28.334 44 47.001c5.33301 9.33301 9.83301 19.166 13.5 29.499s6.83398 21.833 9.50098 34.5zM590 360c2 -6.66699 3.5 -13.501 4.5 -20.501s1.83301 -13.833 2.5 -20.5c0.666992 -7.33301 1 -13.833 1 -19.5v-15.5v-17.5
c0 -6.33301 -0.333008 -13.166 -1 -20.499c-0.666992 -6.66699 -1.5 -13.5 -2.5 -20.5s-2.5 -13.5 -4.5 -19.5c-2 -6.66699 -4.66699 -12.667 -8 -18s-6.66602 -10.333 -9.99902 -15c-9.33301 -9.33301 -20.666 -14 -33.999 -14c-15.333 0 -26.666 4.66699 -33.999 14
c-8 8.66699 -14 19.667 -18 33c-2.66699 6 -4.5 12.5 -5.5 19.5s-1.83301 13.833 -2.5 20.5c0 7.33301 -0.333008 14.166 -1 20.499s-1 12.166 -1 17.499c0 4.66699 0.333008 9.83398 1 15.501s1 12.167 1 19.5c0.666992 6.66699 1.5 13.5 2.5 20.5s2.83301 13.833 5.5 20.5
c4 12.667 10 23.334 18 32.001c7.33301 9.33301 18.666 14 33.999 14c13.333 0 24.666 -4.66699 33.999 -14c3.33301 -4.66699 6.66602 -9.66699 9.99902 -15s6 -11 8 -17z" />
    <glyph glyph-name="one" unicode="1" horiz-adv-x="1076" 
d="M537 750c62.667 0 121.667 -11.833 177 -35.5s103.5 -56 144.5 -97s73.333 -89 97 -144s35.5 -113.5 35.5 -175.5c0 -62.667 -11.833 -121.667 -35.5 -177s-56 -103.5 -97 -144.5s-89.167 -73.333 -144.5 -97s-114.333 -35.5 -177 -35.5c-62 0 -120.5 11.833 -175.5 35.5
s-103 56 -144 97s-73.333 89.167 -97 144.5s-35.5 114.333 -35.5 177c0 62 11.833 120.5 35.5 175.5s56 103 97 144s89 73.333 144 97s113.5 35.5 175.5 35.5zM612 476h-76l-126 -107l46 -53l77 68v-295h79v387z" />
    <glyph glyph-name="two" unicode="2" horiz-adv-x="1076" 
d="M537 750c62.667 0 121.667 -11.833 177 -35.5s103.5 -56 144.5 -97s73.333 -89 97 -144s35.5 -113.5 35.5 -175.5c0 -62.667 -11.833 -121.667 -35.5 -177s-56 -103.5 -97 -144.5s-89.167 -73.333 -144.5 -97s-114.333 -35.5 -177 -35.5c-62 0 -120.5 11.833 -175.5 35.5
s-103 56 -144 97s-73.333 89.167 -97 144.5s-35.5 114.333 -35.5 177c0 62 11.833 120.5 35.5 175.5s56 103 97 144s89 73.333 144 97s113.5 35.5 175.5 35.5zM672 162l-171 -0.00195312l118 100l9.5 9.5l9.5 9.5c4 4 7.16699 7.83301 9.5 11.5s4.83301 7.83398 7.5 12.501
c2 4.66699 3.83301 9.16699 5.5 13.5l5.5 14.5c1.33301 5.33301 2.33301 10.666 3 15.999s1 11 1 17c0 17.333 -3.33301 34.333 -10 51c-3.33301 7.33301 -7.33301 13.833 -12 19.5s-9.66699 11.167 -15 16.5c-10.667 9.33301 -23.667 16.666 -39 21.999
c-7.33301 2 -15.166 3.66699 -23.499 5s-16.833 2 -25.5 2c-10 0 -19.333 -0.666992 -28 -2s-17.334 -3 -26.001 -5c-15.333 -4.66699 -29 -12 -41 -22s-21.667 -22.667 -29 -38c-8 -15.333 -12.333 -32.666 -13 -51.999l82 -6c0.666992 14 5.33398 25.667 14.001 35
c8.66699 10 20.667 15 36 15c13.333 0 24.666 -3.66699 33.999 -11s14 -17.666 14 -30.999c0 -11.333 -3.66699 -21.666 -11 -30.999l-12 -11.5c-4 -3.66699 -7.66699 -7.5 -11 -11.5l-151 -135v-87h269v73z" />
    <glyph glyph-name="three" unicode="3" horiz-adv-x="1076" 
d="M538 750c62.667 0 121.5 -11.833 176.5 -35.5s103 -56 144 -97s73.333 -89 97 -144s35.5 -113.833 35.5 -176.5s-11.833 -121.5 -35.5 -176.5s-56 -103 -97 -144s-89 -73.333 -144 -97s-113.833 -35.5 -176.5 -35.5s-121.5 11.833 -176.5 35.5s-103 56 -144 97
s-73.333 89 -97 144s-35.5 113.833 -35.5 176.5s11.833 121.5 35.5 176.5s56 103 97 144s89 73.333 144 97s113.833 35.5 176.5 35.5zM660 148c7.33301 16 10.9932 32.668 10.9932 50.001c0 13.333 -1.66699 24.333 -5 33c-2 9.33301 -6.33301 18.333 -13 27
c-7.33301 8 -15 14.667 -23 20c-4.66699 3.33301 -9.66699 5.66602 -15 6.99902s-11 2.66602 -17 3.99902v1c22.667 5.33301 39.334 15 50.001 29c11.333 15.333 17 33.666 17 54.999c0 18 -3.66699 33.667 -11 47c-6.66699 14 -16 25.333 -28 34
c-12.667 9.33301 -26.667 16 -42 20c-8 2 -16.167 3.66699 -24.5 5s-16.833 2 -25.5 2c-7.33301 0 -15 -0.666992 -23 -2l-23 -4c-15.333 -4 -28.333 -9.33301 -39 -16c-12 -7.33301 -22.667 -17 -32 -29c-7.33301 -10 -13.666 -24 -18.999 -42l89 -18
c3.33301 9.33301 9 17.666 17 24.999c8.66699 6.66699 19.334 10 32.001 10s23.667 -3.66699 33 -11c9.33301 -6.66699 14 -16.334 14 -29.001c0 -8 -1.66699 -15.333 -5 -22c-4 -5.33301 -9 -9.66602 -15 -12.999s-12.333 -5.33301 -19 -6
c-3.33301 -0.666992 -7.16602 -1 -11.499 -1h-11.5h-26v-72h19h13c4.66699 0 9 -0.333008 13 -1c9.33301 0 18 -1.66699 26 -5c5.33301 -1.33301 11 -5.66602 17 -12.999c4.66699 -5.33301 7 -13.666 7 -24.999c0 -14.667 -4.33301 -26.334 -13 -35.001
c-9.33301 -10 -22.333 -15 -39 -15c-18 0 -31.333 4 -40 12c-8.66699 9.33301 -14.667 20.333 -18 33l-86 -21c4.66699 -17.333 10.834 -32.166 18.501 -44.499s18.167 -22.5 31.5 -30.5c12.667 -7.33301 26.334 -13.166 41.001 -17.499s30.667 -6.5 48 -6.5
c9.33301 0 18.333 0.666992 27 2s17.334 3 26.001 5c16 4.66699 30.667 12 44 22c12.667 10 22.667 22 30 36z" />
    <glyph glyph-name="four" unicode="4" horiz-adv-x="1076" 
d="M557 368h2v-133h-87zM538 750c62.667 0 121.5 -11.833 176.5 -35.5s103 -56 144 -97s73.333 -89 97 -144s35.5 -113.833 35.5 -176.5s-11.833 -121.5 -35.5 -176.5s-56 -103 -97 -144s-89 -73.333 -144 -97s-113.833 -35.5 -176.5 -35.5s-121.5 11.833 -176.5 35.5
s-103 56 -144 97s-73.333 89 -97 144s-35.5 113.833 -35.5 176.5s11.833 121.5 35.5 176.5s56 103 97 144s89 73.333 144 97s113.833 35.5 176.5 35.5zM685 235h-49v240h-90l-157 -240v-67h170v-78h77v78h49v67z" />
    <glyph glyph-name="five" unicode="5" horiz-adv-x="1076" 
d="M538 750c62.667 0 121.5 -11.833 176.5 -35.5s103 -56 144 -97s73.333 -89 97 -144s35.5 -113.833 35.5 -176.5s-11.833 -121.5 -35.5 -176.5s-56 -103 -97 -144s-89 -73.333 -144 -97s-113.833 -35.5 -176.5 -35.5s-121.5 11.833 -176.5 35.5s-103 56 -144 97
s-73.333 89 -97 144s-35.5 113.833 -35.5 176.5s11.833 121.5 35.5 176.5s56 103 97 144s89 73.333 144 97s113.833 35.5 176.5 35.5zM660 163c7.33301 18 11.0029 37.334 11.0029 58.001c0 9.33301 -0.833008 18.5 -2.5 27.5s-4.16699 17.5 -7.5 25.5
c-6 16 -15.333 29.333 -28 40c-9.33301 10 -23.333 18.333 -42 25c-16 6 -33.667 9 -53 9c-7.33301 0 -14 -0.333008 -20 -1s-10.667 -1.66699 -14 -3l1 59h153v72h-232l-5 -213c6.66699 2.66699 13.167 4.83398 19.5 6.50098s13.166 3.16699 20.499 4.5c12.667 2 26 3 40 3
c5.33301 0 10.5 -0.166992 15.5 -0.5s10.167 -0.833008 15.5 -1.5c9.33301 -1.33301 19 -5 29 -11c4 -2.66699 7.83301 -5.5 11.5 -8.5s6.5 -6.5 8.5 -10.5c2.66699 -4.66699 4.83398 -9.33398 6.50098 -14.001s2.5 -10.667 2.5 -18c0 -15.333 -5.33301 -29 -16 -41
c-10 -10 -24 -15 -42 -15c-14.667 0 -26.334 4 -35.001 12c-9.33301 7.33301 -15 18.666 -17 33.999l-86 -20c8.66699 -34 24 -58.333 46 -73c23.333 -17.333 51.666 -26 84.999 -26c10 0 19.833 0.833008 29.5 2.5s19.167 4.16699 28.5 7.5s17.833 7 25.5 11
s14.5 9 20.5 15c6.66699 6.66699 12.667 13.5 18 20.5s9.66602 14.833 12.999 23.5z" />
    <glyph glyph-name="six" unicode="6" horiz-adv-x="1076" 
d="M538 750c62.667 0 121.5 -11.833 176.5 -35.5s103 -56 144 -97s73.333 -89 97 -144s35.5 -113.833 35.5 -176.5s-11.833 -121.5 -35.5 -176.5s-56 -103 -97 -144s-89 -73.333 -144 -97s-113.833 -35.5 -176.5 -35.5s-121.5 11.833 -176.5 35.5s-103 56 -144 97
s-73.333 89 -97 144s-35.5 113.833 -35.5 176.5s11.833 121.5 35.5 176.5s56 103 97 144s89 73.333 144 97s113.833 35.5 176.5 35.5zM670 161c7.33301 16 11 34.333 11 55c0 16.667 -3 33 -9 49c-5.33301 16.667 -13.666 29.667 -24.999 39c-10 11.333 -22.667 20 -38 26
c-16.667 6.66699 -33.334 10 -50.001 10c-6 0 -10.333 -0.333008 -13 -1c-4 0 -8 -1 -12 -3l88 139h-97l-85 -132l-18 -30c-5.33301 -7.33301 -10.666 -16.666 -15.999 -27.999l-4.5 -15c-1.66699 -5.33301 -3.16699 -10.666 -4.5 -15.999
c-2.66699 -10.667 -4 -23.334 -4 -38.001c0 -20.667 3.66699 -39 11 -55c7.33301 -16.667 17.666 -30.667 30.999 -42c14 -12 29.667 -20.667 47 -26c8.66699 -4 17.667 -6.66699 27 -8s18.666 -2 27.999 -2c10 0 19.5 0.666992 28.5 2s18.167 4 27.5 8
c8.66699 3.33301 16.834 7 24.501 11s14.5 9 20.5 15c7.33301 5.33301 13.5 11.666 18.5 18.999s9.5 15 13.5 23zM537 279c18 0 32.668 -5.66699 44.001 -17c11.333 -10.667 17 -25 17 -43s-5.66699 -32.667 -17 -44c-10.667 -11.333 -25.334 -17 -44.001 -17
c-18 0 -33 5.66699 -45 17c-5.33301 6 -9.5 12.667 -12.5 20s-4.5 15.333 -4.5 24c0 9.33301 1.5 17.5 4.5 24.5s7.16699 13.167 12.5 18.5c13.333 11.333 28.333 17 45 17z" />
    <glyph glyph-name="seven" unicode="7" horiz-adv-x="1076" 
d="M538 750c62.667 0 121.5 -11.833 176.5 -35.5s103 -56 144 -97s73.333 -89 97 -144s35.5 -113.833 35.5 -176.5s-11.833 -121.5 -35.5 -176.5s-56 -103 -97 -144s-89 -73.333 -144 -97s-113.833 -35.5 -176.5 -35.5s-121.5 11.833 -176.5 35.5s-103 56 -144 97
s-73.333 89 -97 144s-35.5 113.833 -35.5 176.5s11.833 121.5 35.5 176.5s56 103 97 144s89 73.333 144 97s113.833 35.5 176.5 35.5zM702 475h-282v-77h190l-157 -309h95l154 313v73z" />
    <glyph glyph-name="eight" unicode="8" horiz-adv-x="1076" 
d="M537 321c-14 0 -25.333 4.33301 -34 13c-8 8 -12 18.333 -12 31c0 10 4 19.667 12 29c8 8 19.333 12 34 12c14 0 26 -4 36 -12c8 -9.33301 12 -19 12 -29c0 -12.667 -4 -23 -12 -31c-10.667 -8.66699 -22.667 -13 -36 -13zM537 750c62.667 0 121.667 -11.833 177 -35.5
s103.5 -56 144.5 -97s73.333 -89 97 -144s35.5 -113.5 35.5 -175.5c0 -62.667 -11.833 -121.667 -35.5 -177s-56 -103.5 -97 -144.5s-89.167 -73.333 -144.5 -97s-114.333 -35.5 -177 -35.5c-62 0 -120.5 11.833 -175.5 35.5s-103 56 -144 97s-73.333 89.167 -97 144.5
s-35.5 114.333 -35.5 177c0 62 11.833 120.5 35.5 175.5s56 103 97 144s89 73.333 144 97s113.5 35.5 175.5 35.5zM662 147c7.33301 12 10.999 28.333 10.999 49c0 24 -6.33301 43.667 -19 59c-12 16.667 -29.333 28 -52 34v1c20 6 35.667 16.667 47 32
c11.333 14 17 32 17 54c0 9.33301 -0.833008 17.5 -2.5 24.5s-4.16699 13.833 -7.5 20.5c-7.33301 14.667 -16.333 25.667 -27 33c-5.33301 5.33301 -11.666 9.5 -18.999 12.5s-14.666 5.83301 -21.999 8.5c-7.33301 2 -15.333 3.66699 -24 5s-17.667 2 -27 2
c-8.66699 0 -17.167 -0.666992 -25.5 -2s-16.5 -3 -24.5 -5c-7.33301 -2.66699 -14.5 -5.5 -21.5 -8.5s-13.167 -7.16699 -18.5 -12.5c-12 -8 -21 -19 -27 -33c-7.33301 -12 -11 -27 -11 -45c0 -21.333 6 -39.333 18 -54c11.333 -15.333 27 -26 47 -32v-1
c-24 -6 -41.667 -17.333 -53 -34c-12 -16 -18 -35.667 -18 -59c0 -20.667 3.66699 -37 11 -49c3.33301 -7.33301 7.66602 -13.833 12.999 -19.5s11 -11.167 17 -16.5s12.5 -9.5 19.5 -12.5s14.5 -5.83301 22.5 -8.5c8.66699 -2 17.167 -3.66699 25.5 -5s16.833 -2 25.5 -2
c9.33301 0 18.333 0.666992 27 2s17 3 25 5c8.66699 2.66699 16.5 5.5 23.5 8.5s13.5 7.16699 19.5 12.5s11.5 10.833 16.5 16.5s9.5 12.167 13.5 19.5zM536.999 256c17.333 0 31 -5 41 -15c9.33301 -8.66699 14 -20.334 14 -35.001c0 -13.333 -4.66699 -24.333 -14 -33
c-9.33301 -9.33301 -23 -14 -41 -14c-16.667 0 -29.667 4.66699 -39 14c-9.33301 8.66699 -14 19.667 -14 33c0 14.667 4.66699 26.334 14 35.001c10 10 23 15 39 15z" />
    <glyph glyph-name="nine" unicode="9" horiz-adv-x="1076" 
d="M562 407c18.667 0 33.668 -5.66504 45.001 -16.998c11.333 -12.667 17 -27 17 -43c0 -16.667 -5.66699 -31.334 -17 -44.001c-11.333 -12 -26.333 -18 -45 -18c-9.33301 0 -18 1.5 -26 4.5s-14.667 7.5 -20 13.5c-11.333 11.333 -17 26 -17 44
c0 17.333 5.66699 31.666 17 42.999s26.666 17 45.999 17zM537.001 750.002c62.667 0 121.667 -11.833 177 -35.5s103.5 -56 144.5 -97s73.333 -89 97 -144s35.5 -113.5 35.5 -175.5c0 -62.667 -11.833 -121.667 -35.5 -177s-56 -103.5 -97 -144.5
s-89.167 -73.333 -144.5 -97s-114.333 -35.5 -177 -35.5c-62 0 -120.5 11.833 -175.5 35.5s-103 56 -144 97s-73.333 89.167 -97 144.5s-35.5 114.333 -35.5 177c0 62 11.833 120.5 35.5 175.5s56 103 97 144s89 73.333 144 97s113.5 35.5 175.5 35.5zM701.001 313.002
c3.33301 9.33301 5.00293 21.666 5.00293 36.999c0 20 -4 37.667 -12 53c-6.66699 16.667 -16.667 31 -30 43c-6 5.33301 -12.833 10.166 -20.5 14.499s-16.167 8.16602 -25.5 11.499c-18.667 6.66699 -37.334 10 -56.001 10c-10 0 -19.833 -0.833008 -29.5 -2.5
s-19.167 -4.16699 -28.5 -7.5c-8.66699 -3.33301 -16.667 -7.16602 -24 -11.499s-14.333 -9.16602 -21 -14.499c-6.66699 -6 -12.334 -12.5 -17.001 -19.5s-9 -14.833 -13 -23.5c-8 -15.333 -12 -33 -12 -53c0 -9.33301 0.833008 -18 2.5 -26s4.16699 -15.667 7.5 -23
c5.33301 -17.333 13.333 -31 24 -41c11.333 -12 23.666 -21 36.999 -27c8 -3.33301 16.167 -5.83301 24.5 -7.5s17.166 -2.5 26.499 -2.5c6.66699 0 11 0.666992 13 2c4 0 8.66699 0.666992 14 2l-91 -138h100l84 132l9 14.5l9 14.5
c6.66699 8.66699 11.334 18.334 14.001 29.001c2.66699 5.33301 4.66699 10.833 6 16.5z" />
    <glyph glyph-name="left" unicode="&#xe000;" horiz-adv-x="458" 
d="M102 335c-11.333 10 -17.001 23.334 -17.001 40.001c0 15.333 5.66699 28.666 17 39.999l175 174c11.333 11.333 24.5 17 39.5 17s28.167 -5.66699 39.5 -17s17 -24.5 17 -39.5s-5.66699 -28.167 -17 -39.5l-135 -135l135 -135c11.333 -11.333 17 -24.5 17 -39.5
s-5.66699 -28.167 -17 -39.5s-24.333 -17 -39 -17c-15.333 0 -28.666 5.66699 -39.999 17l-175 174v0z" />
    <glyph glyph-name="leftCircle" unicode="&#xe0001;" horiz-adv-x="1076" 
d="M538 750c62.667 0 121.5 -11.833 176.5 -35.5s103 -56 144 -97s73.333 -89 97 -144s35.5 -113.833 35.5 -176.5s-11.833 -121.5 -35.5 -176.5s-56 -103 -97 -144s-89 -73.333 -144 -97s-113.833 -35.5 -176.5 -35.5s-121.5 11.833 -176.5 35.5s-103 56 -144 97
s-73.333 89 -97 144s-35.5 113.833 -35.5 176.5s11.833 121.5 35.5 176.5s56 103 97 144s89 73.333 144 97s113.833 35.5 176.5 35.5zM353 249l211.998 -211.001c13.333 -13.333 29.333 -20 48 -20c8 0 16.167 1.66699 24.5 5s15.833 8.33301 22.5 15
c13.333 13.333 20 29.333 20 48s-6.66699 34.667 -20 48l-163 163l163 163c13.333 13.333 20 29.333 20 48s-6.66699 34.667 -20 48s-29.166 20 -47.499 20s-34.166 -6.66699 -47.499 -20l-212 -211c-13.333 -13.333 -20 -29.333 -20 -48
c0 -9.33301 1.66699 -18.166 5 -26.499s8.33301 -15.5 15 -21.5z" />
    <glyph glyph-name="right" unicode="&#xe0002;" horiz-adv-x="458" 
d="M356 335l-175.001 -174.001c-11.333 -11.333 -24.666 -17 -39.999 -17c-14.667 0 -27.667 5.66699 -39 17s-17 24.5 -17 39.5s5.66699 28.167 17 39.5l135 135l-135 135c-11.333 11.333 -17 24.5 -17 39.5s5.66699 28.167 17 39.5s24.5 17 39.5 17
s28.167 -5.66699 39.5 -17l175 -174c11.333 -11.333 17 -24.666 17 -39.999c0 -16.667 -5.66699 -30 -17 -40z" />
    <glyph glyph-name="rightCircle" unicode="&#xe0003;" horiz-adv-x="1076" 
d="M538 750c62.667 0 121.5 -11.833 176.5 -35.5s103 -56 144 -97s73.333 -89 97 -144s35.5 -113.833 35.5 -176.5s-11.833 -121.5 -35.5 -176.5s-56 -103 -97 -144s-89 -73.333 -144 -97s-113.833 -35.5 -176.5 -35.5s-121.5 11.833 -176.5 35.5s-103 56 -144 97
s-73.333 89 -97 144s-35.5 113.833 -35.5 176.5s11.833 121.5 35.5 176.5s56 103 97 144s89 73.333 144 97s113.833 35.5 176.5 35.5zM723 249c6.66699 6 11.665 13.168 14.998 21.501s5 17.166 5 26.499c0 18.667 -6.66699 34.667 -20 48l-212 211
c-13.333 13.333 -29.166 20 -47.499 20s-34.166 -6.66699 -47.499 -20s-20 -29.333 -20 -48s6.66699 -34.667 20 -48l163 -163l-163 -163c-13.333 -13.333 -20 -29.333 -20 -48s6.66699 -34.667 20 -48c6.66699 -6.66699 14.167 -11.667 22.5 -15s16.5 -5 24.5 -5
c18.667 0 34.667 6.66699 48 20z" />
    <glyph glyph-name="up" unicode="&#xe0004;" horiz-adv-x="632" 
d="M531 273c-5.33301 -5.33301 -11.5 -9.33301 -18.5 -12s-14.167 -4 -21.5 -4c-16 0 -29.333 5.33301 -40 16l-134 136l-136 -136c-11.333 -11.333 -24.5 -17 -39.5 -17s-28.167 5.66699 -39.5 17s-17 24.666 -17 39.999s5.66699 28.666 17 39.999l174 175
c10.667 10.667 24 16 40 16s29.333 -5.33301 40 -16l175 -175c10.667 -11.333 16 -24.666 16 -39.999s-5.33301 -28.666 -16 -39.999z" />
    <glyph glyph-name="upCircle" unicode="&#xe0005;" horiz-adv-x="1076" 
d="M539 750c62 0 120.5 -11.833 175.5 -35.5s103 -56 144 -97s73.333 -89.167 97 -144.5s35.5 -114.333 35.5 -177s-11.833 -121.334 -35.5 -176.001s-56 -102.5 -97 -143.5s-89 -73.333 -144 -97s-113.5 -35.5 -175.5 -35.5c-62.667 0 -121.667 11.833 -177 35.5
s-103.5 56 -144.5 97s-73.333 88.833 -97 143.5s-35.5 113.334 -35.5 176.001s11.833 121.667 35.5 177s56 103.5 97 144.5s89.167 73.333 144.5 97s114.333 35.5 177 35.5zM798 174c12.667 13.333 19.001 29.333 19.001 48s-6.33301 34.667 -19 48l-212 212
c-12.667 12.667 -28.667 19 -48 19s-35.333 -6.33301 -48 -19l-211 -212c-13.333 -13.333 -20 -29.333 -20 -48s6.66699 -34.667 20 -48s29.333 -20 48 -20s34.667 6.66699 48 20l164 164l162 -164c12.667 -13.333 28.667 -20 48 -20c8.66699 0 17.167 1.5 25.5 4.5
s16.166 8.16699 23.499 15.5z" />
    <glyph glyph-name="down" unicode="&#xe0006;" horiz-adv-x="632" 
d="M531 477c10.667 -11.333 16 -24.666 16 -39.999s-5.33301 -28.666 -16 -39.999l-175 -175c-10.667 -10.667 -24 -16 -40 -16s-29.333 5.33301 -40 16l-174 175c-11.333 11.333 -17 24.666 -17 39.999s5.66699 28.666 17 39.999s24.5 17 39.5 17s28.167 -5.66699 39.5 -17
l136 -136l134 136c10.667 10.667 24 16 40 16c7.33301 0 14.5 -1.33301 21.5 -4s13.167 -6.66699 18.5 -12z" />
    <glyph glyph-name="downCircle" unicode="&#xe0007;" horiz-adv-x="1076" 
d="M539 -156c-62.667 0 -121.667 11.833 -177 35.5s-103.5 56 -144.5 97s-73.333 89.167 -97 144.5s-35.5 114.333 -35.5 177s11.833 121.334 35.5 176.001s56 102.5 97 143.5s89.167 73.333 144.5 97s114.333 35.5 177 35.5c62 0 120.5 -11.833 175.5 -35.5
s103 -56 144 -97s73.333 -88.833 97 -143.5s35.5 -113.334 35.5 -176.001s-11.833 -121.667 -35.5 -177s-56 -103.5 -97 -144.5s-89 -73.333 -144 -97s-113.5 -35.5 -175.5 -35.5zM798 420c-7.33301 7.33301 -15.167 12.5 -23.5 15.5s-16.833 4.5 -25.5 4.5
c-19.333 0 -35.333 -6.66699 -48 -20l-162 -164l-164 164c-13.333 13.333 -29.333 20 -48 20s-34.667 -6.66699 -48 -20s-20 -29.333 -20 -48s6.66699 -34.667 20 -48l211 -212c12.667 -12.667 28.667 -19 48 -19s35.333 6.33301 48 19l212 212
c12.667 13.333 19 29.333 19 48s-6.33301 34.667 -19 48z" />
    <glyph glyph-name="check" unicode="&#xe0058;" horiz-adv-x="568" 
d="M474 477l-216.999 -292.001c-10 -12 -22 -18 -36 -18c-14.667 0 -26.334 6 -35.001 18l-92 123c-7.33301 10 -10 21 -8 33s7.66699 21.667 17 29c10 7.33301 21 10.166 33 8.49902s21.667 -7.5 29 -17.5l56 -75l182 244c7.33301 9.33301 17 15 29 17
s22.667 -0.666992 32 -8c10 -7.33301 16 -17.166 18 -29.499s-0.666992 -23.166 -8 -32.499z" />
    <glyph glyph-name="checkCircle" unicode="&#xe0059;" horiz-adv-x="1076" 
d="M539 750c62.667 0 121.334 -11.833 176.001 -35.5s102.5 -56 143.5 -97s73.333 -89.167 97 -144.5s35.5 -114.333 35.5 -177s-11.833 -121.334 -35.5 -176.001s-56 -102.5 -97 -143.5s-88.833 -73.333 -143.5 -97s-113.334 -35.5 -176.001 -35.5
s-121.667 11.833 -177 35.5s-103.5 56 -144.5 97s-73.333 88.833 -97 143.5s-35.5 113.334 -35.5 176.001s11.833 121.667 35.5 177s56 103.5 97 144.5s89.167 73.333 144.5 97s114.333 35.5 177 35.5zM750 420c8.66699 11.333 11.833 24.3311 9.5 38.998
s-9.5 26.667 -21.5 36c-11.333 8.66699 -24.333 11.834 -39 9.50098s-26.334 -9.16602 -35.001 -20.499l-220 -295l-67 90c-8.66699 12.667 -20.334 20 -35.001 22s-28 -1.66699 -40 -11c-11.333 -9.33301 -18.166 -21 -20.499 -35s0.833984 -27.333 9.50098 -40l111 -148
c10.667 -14.667 24.667 -22 42 -22c18 0 32.667 7.33301 44 22z" />
    <glyph glyph-name="exclamation" unicode="&#xe0060;" horiz-adv-x="310" 
d="M202 150c0 -13.333 -4.5 -24.5 -13.5 -33.5s-20.167 -13.5 -33.5 -13.5c-12.667 0 -23.5 4.5 -32.5 13.5s-13.5 20.167 -13.5 33.5v8c0 13.333 4.5 24.5 13.5 33.5s19.833 13.5 32.5 13.5c13.333 0 24.5 -4.5 33.5 -13.5s13.5 -20.167 13.5 -33.5v-8zM224 571
l-21.9971 -282.999c-1.33301 -13.333 -6.83301 -24.333 -16.5 -33s-21.167 -12.334 -34.5 -11.001c-11.333 1.33301 -20.833 6 -28.5 14s-12.167 18 -13.5 30l-23 283c-1.33301 19.333 4.16699 36.333 16.5 51s28.166 22.667 47.499 24s36.166 -4 50.499 -16
s22.166 -27.667 23.499 -47c0.666992 -4 0.666992 -8 0 -12z" />
    <glyph glyph-name="exclamCircle" unicode="&#xe0061;" horiz-adv-x="1076" 
d="M538 750c62.667 0 121.5 -11.833 176.5 -35.5s103 -56 144 -97s73.333 -89 97 -144s35.5 -113.833 35.5 -176.5s-11.833 -121.5 -35.5 -176.5s-56 -103 -97 -144s-89 -73.333 -144 -97s-113.833 -35.5 -176.5 -35.5s-121.5 11.833 -176.5 35.5s-103 56 -144 97
s-73.333 89 -97 144s-35.5 113.833 -35.5 176.5s11.833 121.5 35.5 176.5s56 103 97 144s89 73.333 144 97s113.833 35.5 176.5 35.5zM595 35c0 15.333 -5.66699 28.666 -17 39.999s-24.666 17 -39.999 17s-28.5 -5.66699 -39.5 -17s-16.5 -24.666 -16.5 -39.999v-10
c0 -15.333 5.5 -28.666 16.5 -39.999s24.167 -17 39.5 -17s28.666 5.66699 39.999 17s17 24.666 17 39.999v10zM621 534c2 4.66699 2 9.33301 0 14c-1.33301 23.333 -10.666 42.333 -27.999 57s-37.666 21 -60.999 19c-12 -0.666992 -22.833 -3.5 -32.5 -8.5
s-18 -11.667 -25 -20s-12.333 -17.666 -16 -27.999s-4.83398 -21.5 -3.50098 -33.5l27 -342c1.33301 -14.667 6.66602 -26.834 15.999 -36.501s21 -15.167 35 -16.5c16 -1.33301 29.833 3 41.5 13s18.5 23.333 20.5 40z" />
    <glyph glyph-name="questionIcon" unicode="&#xe0062;" horiz-adv-x="441" 
d="M220 106c-14 0 -25.833 5 -35.5 15s-14.5 22 -14.5 36s4.83301 26 14.5 36s21.5 15 35.5 15s26 -5 36 -15s15 -22 15 -36s-5 -26 -15 -36s-22 -15 -36 -15zM300 367c-11.333 -11.333 -20.501 -22.5 -27.501 -33.5s-10.5 -26.167 -10.5 -45.5
c0 -11.333 -4 -21.166 -12 -29.499s-18 -12.5 -30 -12.5c-11.333 0 -21.166 4.16699 -29.499 12.5s-12.5 18.166 -12.5 29.499c0 18 2 34 6 48s9 26.333 15 37s12.5 20.167 19.5 28.5l20.5 23.5c11.333 12 19.666 22.167 24.999 30.5s8 19.5 8 33.5s-5 26 -15 36
s-22.333 15 -37 15c-14 0 -26 -5 -36 -15s-15 -22 -15 -36c0 -12 -4.16699 -22 -12.5 -30s-18.166 -12 -29.499 -12s-21.166 4 -29.499 12s-12.5 18 -12.5 30c0 18.667 3.5 36.334 10.5 53.001s16.667 31.167 29 43.5s26.666 22 42.999 29s33.833 10.5 52.5 10.5
s36.334 -3.5 53.001 -10.5s31.167 -16.667 43.5 -29s22 -26.833 29 -43.5s10.5 -34.334 10.5 -53.001c0 -15.333 -1.66699 -29.166 -5 -41.499s-7.83301 -23.333 -13.5 -33s-11.834 -18.334 -18.501 -26.001z" />
    <glyph glyph-name="questionCircle" unicode="&#xe0063;" horiz-adv-x="1076" 
d="M538 750c62.667 0 121.5 -11.833 176.5 -35.5s103 -56 144 -97s73.333 -89 97 -144s35.5 -113.833 35.5 -176.5s-11.833 -121.5 -35.5 -176.5s-56 -103 -97 -144s-89 -73.333 -144 -97s-113.833 -35.5 -176.5 -35.5s-121.5 11.833 -176.5 35.5s-103 56 -144 97
s-73.333 89 -97 144s-35.5 113.833 -35.5 176.5s11.833 121.5 35.5 176.5s56 103 97 144s89 73.333 144 97s113.833 35.5 176.5 35.5zM526 -28c17.333 0 32 6 44 18s18 26.667 18 44c0 16.667 -6 31 -18 43s-26.667 18 -44 18s-31.666 -6 -42.999 -18s-17 -26.333 -17 -43
c0 -17.333 5.66699 -32 17 -44s25.666 -18 42.999 -18zM623 287c7.33301 8 15.0029 16.832 23.0029 26.499s15.167 20.334 21.5 32.001s11.666 24.834 15.999 39.501s6.5 31.334 6.5 50.001c0 22.667 -4.33301 43.834 -13 63.501s-20.334 37 -35.001 52s-32 26.833 -52 35.5
s-41.333 13 -64 13c-22 0 -43 -4.33301 -63 -13s-37.333 -20.5 -52 -35.5s-26.334 -32.333 -35.001 -52s-13 -40.834 -13 -63.501c0 -14.667 5 -26.834 15 -36.501s22 -14.5 36 -14.5c13.333 0 25 4.83301 35 14.5s15 21.834 15 36.501c0 17.333 6 31.833 18 43.5
s26.667 17.5 44 17.5s32.166 -5.83301 44.499 -17.5s18.5 -26.167 18.5 -43.5s-3.33301 -31 -10 -41s-16.667 -22.333 -30 -37c-8 -8 -16.333 -17.167 -25 -27.5s-16.667 -22 -24 -35s-13.333 -27.833 -18 -44.5s-7 -36 -7 -58c0 -14 5 -26 15 -36s22 -15 36 -15
c14.667 0 26.834 5 36.501 15s14.5 22 14.5 36c0 23.333 4.33301 41.666 13 54.999s19.667 26.666 33 39.999z" />
    <glyph glyph-name="cancelIcon" unicode="&#xe0064;" horiz-adv-x="546" 
d="M446 268c9.33301 -9.33301 13.999 -20.333 13.999 -33s-4.66699 -23.667 -14 -33c-8.66699 -9.33301 -19.667 -14 -33 -14s-24.333 4.66699 -33 14l-107 107l-107 -107c-8.66699 -9.33301 -19.667 -14 -33 -14s-24.666 4.66699 -33.999 14s-14 20.333 -14 33
s4.66699 23.667 14 33l108 107l-108 107c-9.33301 9.33301 -14 20.333 -14 33s4.66699 23.667 14 33s20.5 14 33.5 14s24.167 -4.66699 33.5 -14l107 -107l107 107c9.33301 9.33301 20.333 14 33 14s23.667 -4.66699 33 -14s14 -20.333 14 -33s-4.66699 -23.667 -14 -33
l-107 -107z" />
    <glyph glyph-name="cancelCircle" unicode="&#xe0065;" horiz-adv-x="1076" 
d="M538 750c62.667 0 121.5 -11.833 176.5 -35.5s103 -56 144 -97s73.333 -89 97 -144s35.5 -113.833 35.5 -176.5s-11.833 -121.5 -35.5 -176.5s-56 -103 -97 -144s-89 -73.333 -144 -97s-113.833 -35.5 -176.5 -35.5s-121.5 11.833 -176.5 35.5s-103 56 -144 97
s-73.333 89 -97 144s-35.5 113.833 -35.5 176.5s11.833 121.5 35.5 176.5s56 103 97 144s89 73.333 144 97s113.833 35.5 176.5 35.5zM618 297l128.998 129c11.333 11.333 17 24.666 17 39.999s-5.66699 28.666 -17 39.999s-24.666 17 -39.999 17
s-28.666 -5.66699 -39.999 -17l-129 -129l-129 129c-11.333 11.333 -24.833 17 -40.5 17s-29.167 -5.66699 -40.5 -17s-17 -24.666 -17 -39.999s5.66699 -28.666 17 -39.999l130 -129l-130 -129c-11.333 -11.333 -17 -24.666 -17 -39.999s5.66699 -28.666 17 -39.999
s25 -17 41 -17c7.33301 0 14.5 1.33301 21.5 4s13.167 7 18.5 13l129 129l129 -129c5.33301 -6 11.5 -10.333 18.5 -13s14.167 -4 21.5 -4c16 0 29.333 5.66699 40 17c11.333 11.333 17 24.666 17 39.999s-5.66699 28.666 -17 39.999z" />
    <glyph glyph-name="plusIcon" unicode="&#xe0066;" horiz-adv-x="662" 
d="M563 341c-4 -4 -8.83203 -7.33301 -14.499 -10s-11.834 -4 -18.501 -4h-152v-151c0 -12.667 -4.33301 -24 -13 -34c-10 -8.66699 -21 -13 -33 -13c-13.333 0 -24.666 4.5 -33.999 13.5s-14 20.167 -14 33.5v151h-152c-13.333 0 -24.5 4.5 -33.5 13.5
s-13.5 20.167 -13.5 33.5s4.5 24.666 13.5 33.999s20.167 14 33.5 14h152v152c0 13.333 4.66699 24.5 14 33.5s20.666 13.5 33.999 13.5c12.667 0 23.5 -4.5 32.5 -13.5s13.5 -20.167 13.5 -33.5v-152h152c13.333 0 24.5 -4.66699 33.5 -14s13.5 -20.666 13.5 -33.999
c0 -12.667 -4.66699 -23.667 -14 -33z" />
    <glyph glyph-name="plusCircle" unicode="&#xe0067;" horiz-adv-x="1076" 
d="M539 750c62.667 0 121.334 -11.833 176.001 -35.5s102.5 -56 143.5 -97s73.333 -89.167 97 -144.5s35.5 -114.333 35.5 -177s-11.833 -121.334 -35.5 -176.001s-56 -102.5 -97 -143.5s-88.833 -73.333 -143.5 -97s-113.334 -35.5 -176.001 -35.5
s-121.667 11.833 -177 35.5s-103.5 56 -144.5 97s-73.333 88.833 -97 143.5s-35.5 113.334 -35.5 176.001s11.833 121.667 35.5 177s56 103.5 97 144.5s89.167 73.333 144.5 97s114.333 35.5 177 35.5zM818 256c11.333 11.333 17 24.666 17 39.999
c0 16 -5.5 29.667 -16.5 41s-24.5 17 -40.5 17h-183v183c0 16 -5.5 29.5 -16.5 40.5s-24.167 16.5 -39.5 16.5c-16 0 -29.667 -5.5 -41 -16.5s-17 -24.5 -17 -40.5v-183h-183c-16 0 -29.5 -5.66699 -40.5 -17s-16.5 -25 -16.5 -41s5.5 -29.5 16.5 -40.5
s24.5 -16.5 40.5 -16.5h183v-182c0 -16 5.66699 -29.5 17 -40.5s25 -16.5 41 -16.5c14.667 0 28 5.33301 40 16c10.667 10.667 16 24.334 16 41.001v182h183c16.667 0 30 5.66699 40 17z" />
    <glyph glyph-name="minusIcon" unicode="&#xe0068;" horiz-adv-x="661" 
d="M562 342c-8 -9.33301 -19 -14 -33 -14h-398c-13.333 0 -24.333 4.5 -33 13.5s-13 20.167 -13 33.5s4.33301 24.333 13 33s19.667 13 33 13h398c13.333 0 24.5 -4.33301 33.5 -13s13.5 -19.667 13.5 -33c0 -12.667 -4.66699 -23.667 -14 -33z" />
    <glyph glyph-name="minusCircle" unicode="&#xe0069;" horiz-adv-x="1076" 
d="M538 750c62.667 0 121.5 -11.833 176.5 -35.5s103 -56 144 -97s73.333 -89 97 -144s35.5 -113.833 35.5 -176.5s-11.833 -121.5 -35.5 -176.5s-56 -103 -97 -144s-89 -73.333 -144 -97s-113.833 -35.5 -176.5 -35.5s-121.5 11.833 -176.5 35.5s-103 56 -144 97
s-73.333 89 -97 144s-35.5 113.833 -35.5 176.5s11.833 121.5 35.5 176.5s56 103 97 144s89 73.333 144 97s113.833 35.5 176.5 35.5zM818 257c11.333 11.333 17.001 24.666 17.001 39.999s-5.5 28.5 -16.5 39.5s-24.5 16.5 -40.5 16.5h-480c-16 0 -29.333 -5.5 -40 -16.5
s-16 -24.167 -16 -39.5s5.33301 -28.666 16 -39.999s24 -17 40 -17h480c17.333 0 30.666 5.66699 39.999 17z" />
    <glyph glyph-name="loading" unicode="&#xe0070;" horiz-adv-x="932" 
d="M847 657c0 -13.333 -4.83203 -24.8301 -14.499 -34.4971s-21.167 -14.5 -34.5 -14.5h-46c16 -19.333 29.667 -40 41 -62s20.666 -45 27.999 -69c1.33301 -4.66699 2.33301 -9.16699 3 -13.5s1.66699 -9.16602 3 -14.499c3.33301 -13.333 1.16602 -25.5 -6.50098 -36.5
s-18.167 -17.833 -31.5 -20.5c-2 -0.666992 -5.33301 -1 -10 -1c-11.333 0 -21.5 3.66699 -30.5 11s-14.833 16.666 -17.5 27.999l-2 10c-0.666992 3.33301 -1.66699 6.66602 -3 9.99902c-10 38 -28.333 72.333 -55 103v-71c0 -13.333 -4.83301 -24.833 -14.5 -34.5
s-21.167 -14.5 -34.5 -14.5s-24.833 4.83301 -34.5 14.5s-14.5 21.167 -14.5 34.5v175c0 0.666992 0.166992 1.16699 0.5 1.5s0.5 0.833008 0.5 1.5v5c0 1.33301 0.166992 2.33301 0.5 3s0.5 1.33398 0.5 2.00098c0.666992 1.33301 1 2.16602 1 2.49902
s0.333008 1.16602 1 2.49902c0 0.666992 0.666992 2.33398 2 5.00098l1 2l1 1c0.666992 1.33301 1.16699 2.16602 1.5 2.49902s0.833008 1.16602 1.5 2.49902l3 3l3 3c1.33301 0.666992 2.66602 1.66699 3.99902 3c0.666992 0.666992 1.33398 1.16699 2.00098 1.5
s1.33398 0.833008 2.00098 1.5c1.33301 0 2.66602 0.666992 3.99902 2l4 2c1.33301 0 2.33301 0.166992 3 0.5s1.33398 0.5 2.00098 0.5c2 0 3.33301 0.333008 4 1h6h1h176c13.333 0 24.833 -4.83301 34.5 -14.5s14.5 -21.167 14.5 -34.5zM457.001 652.003
c-12.667 0 -23.665 4.5 -32.998 13.5s-14.333 20.167 -15 33.5s3.66602 25 12.999 35s20.666 15.333 33.999 16h4c13.333 0 24.666 -4.83301 33.999 -14.5s14 -21.167 14 -34.5s-4.66699 -24.833 -14 -34.5s-20.666 -14.5 -33.999 -14.5h-3zM152.003 493.003
c-11.333 7.33301 -18.999 17.3311 -22.999 29.998s-2.33301 25 5 37l3 5c6.66699 11.333 16.5 18.833 29.5 22.5s25.5 1.83398 37.5 -5.49902c11.333 -7.33301 18.833 -17.5 22.5 -30.5s1.83398 -25.167 -5.49902 -36.5l-2 -4
c-4.66699 -7.33301 -10.834 -13.166 -18.501 -17.499s-15.834 -6.5 -24.501 -6.5c-8 0 -16 2 -24 6zM295.004 607.001c-8 0 -15.834 2.16797 -23.501 6.50098s-13.834 10.166 -18.501 17.499c-7.33301 11.333 -9.16602 23.5 -5.49902 36.5s11.167 23.167 22.5 30.5l5 3
c11.333 6.66699 23.5 8.16699 36.5 4.5s23.167 -11.167 30.5 -22.5c6.66699 -12 8.16699 -24.5 4.5 -37.5s-11.5 -22.833 -23.5 -29.5l-3 -2c-7.33301 -4.66699 -15.666 -7 -24.999 -7zM480.003 99.002c13.333 1.33301 25.166 -2.50098 35.499 -11.501
s16.166 -20.167 17.499 -33.5s-2.66699 -25.166 -12 -35.499s-20.666 -16.166 -33.999 -17.499c-4.66699 -0.666992 -9.16699 -1 -13.5 -1h-13.5h-9c-2.66699 0 -5.66699 0.333008 -9 1c-13.333 0.666992 -24.666 6 -33.999 16s-13.666 21.667 -12.999 35
s6 24.666 16 33.999s21.667 13.333 35 12h14h10c3.33301 0 6.66602 0.333008 9.99902 1zM787.003 338.001c13.333 -3.33301 23.332 -10.835 29.999 -22.502s8.33398 -24.167 5.00098 -37.5c-2.66699 -9.33301 -5.66699 -18.5 -9 -27.5l-10 -26.5
c-4 -9.33301 -10.167 -16.666 -18.5 -21.999s-17.166 -8 -26.499 -8c-5.33301 0 -12 1.66699 -20 5c-12.667 5.33301 -21.334 14.333 -26.001 27s-4.33398 25 0.999023 37c6.66699 14 11.334 27.333 14.001 40c3.33301 13.333 10.833 23.333 22.5 30
s24.167 8.33398 37.5 5.00098zM636.002 161.999c10.667 8.66699 22.666 12.333 35.999 11s24.333 -7.33301 33 -18c9.33301 -10 13.333 -21.667 12 -35s-7.33301 -24.666 -18 -33.999c-14 -11.333 -29.667 -22.333 -47 -33c-7.33301 -4.66699 -15.666 -7 -24.999 -7
c-18.667 0 -32.667 8 -42 24c-7.33301 11.333 -9.33301 23.5 -6 36.5s10.666 23.167 21.999 30.5c6.66699 3.33301 12.834 7.16602 18.501 11.499s11.167 8.83301 16.5 13.5zM134.001 309.998c-13.333 0 -24.5 4.5 -33.5 13.5s-14.167 20.167 -15.5 33.5v18v2
c0 13.333 4.83301 24.833 14.5 34.5s21.167 14.5 34.5 14.5s24.833 -4.83301 34.5 -14.5s14.5 -21.167 14.5 -34.5v-2v-14c0.666992 -13.333 -3.5 -24.833 -12.5 -34.5s-20.167 -15.167 -33.5 -16.5h-3zM227.001 224.998c7.33301 -11.333 9.50098 -23.501 6.50098 -36.501
s-10.167 -23.167 -21.5 -30.5c-7.33301 -5.33301 -16 -8 -26 -8c-8 0 -15.667 1.83301 -23 5.5s-13.333 9.16699 -18 16.5l-9.5 15.5c-3 5 -5.83301 10.167 -8.5 15.5c-6.66699 12 -7.83398 24.5 -3.50098 37.5s12.5 22.5 24.5 28.5c12 6.66699 24.333 7.83398 37 3.50098
s22.334 -12.5 29.001 -24.5c3.33301 -7.33301 7.66602 -15 12.999 -23zM333.002 128.997c12 -6.66699 20.0029 -16.332 24.0029 -28.999s3 -25 -3 -37c-4.66699 -8.66699 -10.834 -15.167 -18.501 -19.5s-16.167 -6.5 -25.5 -6.5c-8.66699 0 -16 1.66699 -22 5
c-10 4.66699 -20.333 10.667 -31 18c-11.333 7.33301 -18.5 17.666 -21.5 30.999s-0.833008 25.666 6.5 36.999s17.666 18.333 30.999 21s25.666 0.333984 36.999 -6.99902c3.33301 -2.66699 7 -5 11 -7z" />
    <glyph glyph-name="loadingCircle" unicode="&#xe0071;" 
d="M460 750c52 0 100.667 -9.83301 146 -29.5s85 -46.5 119 -80.5s60.833 -73.667 80.5 -119s29.5 -94 29.5 -146s-9.83301 -100.667 -29.5 -146s-46.5 -85 -80.5 -119s-73.667 -60.833 -119 -80.5s-94 -29.5 -146 -29.5s-100.667 9.83301 -146 29.5s-85 46.5 -119 80.5
s-60.833 73.667 -80.5 119s-29.5 94 -29.5 146s9.83301 100.667 29.5 146s46.5 85 80.5 119s73.667 60.833 119 80.5s94 29.5 146 29.5zM444 605c-8.66699 0 -16.002 -3.16602 -22.002 -9.49902s-8.66699 -13.833 -8 -22.5s3.83398 -15.834 9.50098 -21.501
s12.834 -8.5 21.501 -8.5h1h1c8.66699 0 16 3 22 9s9 13.333 9 22s-3 16 -9 22s-13.333 9 -22 9h-3zM324.998 572.001c-7.33301 -4.66699 -12.167 -11.167 -14.5 -19.5s-1.16602 -16.166 3.50098 -23.499c6.66699 -10 15.667 -15 27 -15c5.33301 0 10.666 1.66699 15.999 5
l2 1c7.33301 4 12.166 10.167 14.499 18.5s1.5 16.166 -2.5 23.499c-4.66699 7.33301 -11.167 12.333 -19.5 15s-16.166 1.66699 -23.499 -3zM237.997 484.001c-4.66699 -7.33301 -5.66797 -15.168 -3.00098 -23.501s7.66699 -14.833 15 -19.5
c6.66699 -2.66699 11.667 -4 15 -4c12.667 0 21.667 5.33301 27 16l2 2c4 7.33301 5 15.166 3 23.499s-6.66699 14.833 -14 19.5s-15.166 5.83398 -23.499 3.50098s-14.833 -7.16602 -19.5 -14.499zM206.996 353.999c0.666992 -8.66699 3.99902 -15.833 9.99902 -21.5
s13 -8.5 21 -8.5h2c8.66699 0.666992 15.834 4 21.501 10s8.5 13.667 8.5 23c-0.666992 2 -1 5 -1 9v1c0 8.66699 -3 16 -9 22s-13.333 9 -22 9s-16 -3 -22 -9s-9 -13.333 -9 -22v-1v-12zM287.995 226c7.33301 5.33301 11.999 12.168 13.999 20.501
s0.666992 16.166 -4 23.499l-4.5 6.5c-1.66699 2.33301 -3.16699 4.83301 -4.5 7.5c-4 8 -10.167 13.167 -18.5 15.5s-16.166 1.83301 -23.499 -1.5c-7.33301 -4 -12.333 -10.167 -15 -18.5s-2 -16.5 2 -24.5c3.33301 -6.66699 7 -13 11 -19c6 -10 14.667 -15 26 -15
c6 0 11.667 1.66699 17 5zM378.994 166.002c4 7.33301 4.66504 15.168 1.99805 23.501s-8 14.5 -16 18.5c-2.66699 1.33301 -5.16699 2.66602 -7.5 3.99902s-4.5 2.66602 -6.5 3.99902c-7.33301 5.33301 -15.166 7 -23.499 5s-15.166 -6.66699 -20.499 -14
c-4.66699 -7.33301 -6 -15.166 -4 -23.499s6.66699 -14.833 14 -19.5c6 -4 12.333 -7.66699 19 -11c4.66699 -2.66699 9.66699 -4 15 -4c12.667 0 22 5.66699 28 17zM464.992 126.004c8.66699 1.33301 15.832 5.16699 21.499 11.5s7.83398 13.833 6.50098 22.5
c-0.666992 8.66699 -4.16699 15.834 -10.5 21.501s-13.833 8.16699 -22.5 7.5c-2 -0.666992 -4.16699 -1 -6.5 -1h-6.5c-4 0 -7 0.333008 -9 1c-8.66699 0 -16.167 -2.83301 -22.5 -8.5s-9.83301 -12.834 -10.5 -21.501s1.83301 -16.167 7.5 -22.5
s13.167 -9.83301 22.5 -10.5h12h18zM599.99 181.005c6.66699 5.33301 10.333 12.3281 11 20.9951s-1.66602 16.334 -6.99902 23.001s-12.333 10.334 -21 11.001s-16.334 -1.66602 -23.001 -6.99902c-3.33301 -3.33301 -7 -6.16602 -11 -8.49902s-8 -4.83301 -12 -7.5
c-7.33301 -4.66699 -12 -11.167 -14 -19.5s-0.666992 -16.166 4 -23.499c5.33301 -10 14.333 -15 27 -15c5.33301 0 10.333 1.66699 15 5c10 5.33301 20.333 12.333 31 21zM677.989 303c2.66699 8.66699 1.83301 16.667 -2.5 24s-10.833 12.333 -19.5 15
c-8.66699 2 -16.667 0.833008 -24 -3.5s-12 -10.5 -14 -18.5c-1.33301 -4.66699 -2.83301 -9.16699 -4.5 -13.5s-3.16699 -8.5 -4.5 -12.5c-3.33301 -8 -3.5 -16 -0.5 -24s8.5 -14 16.5 -18c5.33301 -1.33301 9.33301 -2 12 -2c6 0 11.667 1.66699 17 5s9.33301 8 12 14
c4.66699 10 8.66699 21.333 12 34zM662.988 515c8.66699 0 15.9961 3.00098 21.9961 9.00098s9 13.333 9 22c0 9.33301 -3 17 -9 23s-13.333 9 -22 9h-112c-0.666992 0 -1 -0.333008 -1 -1h-4h-2c-0.666992 -0.666992 -1.66699 -1 -3 -1
c-0.666992 -0.666992 -1.66699 -1 -3 -1c-0.666992 -0.666992 -1.16699 -1 -1.5 -1s-0.833008 -0.333008 -1.5 -1c-0.666992 0 -1.33398 -0.333008 -2.00098 -1s-1.16699 -1 -1.5 -1s-0.833008 -0.333008 -1.5 -1c0 -1.33301 -0.666992 -2 -2 -2l-2 -2
c0 -0.666992 -0.666992 -1.66699 -2 -3v-1c-0.666992 -0.666992 -1 -1.33398 -1 -2.00098c-0.666992 -0.666992 -1 -1.66699 -1 -3c-0.666992 -0.666992 -1 -1.66699 -1 -3c-0.666992 -0.666992 -1 -1.66699 -1 -3v-3c0 -0.666992 -0.166992 -1 -0.5 -1
s-0.5 -0.333008 -0.5 -1v-112c0 -8.66699 3 -16 9 -22s13.667 -9 23 -9c8.66699 0 16 3 22 9s9 13.333 9 22v46c16.667 -20.667 28.334 -42.667 35.001 -66c0.666992 -2 1.16699 -4.16699 1.5 -6.5s0.833008 -4.5 1.5 -6.5c1.33301 -7.33301 5 -13.333 11 -18
s12.667 -7 20 -7h6c8.66699 2 15.334 6.5 20.001 13.5s6.33398 14.833 5.00098 23.5c-1.33301 3.33301 -2.16602 6.33301 -2.49902 9s-1.16602 5.66699 -2.49902 9c-8 30 -22.333 58 -43 84h29z" />
    <glyph glyph-name="youtube" unicode="&#xe0122;" horiz-adv-x="732" 
d="M328 193c-2 -2 -5 -4.33301 -9 -7c-3.33301 -2 -6 -3 -8 -3c-3.33301 0 -5.33301 0.666992 -6 2c-0.666992 0.666992 -1 3 -1 7v109h-29v-119c0 -7.33301 1.66699 -13.666 5 -18.999c2.66699 -4 7.66699 -6 15 -6c6.66699 0 12 1.66699 16 5
c7.33301 3.33301 13 7.66602 17 12.999v-16h28v142h-28v-108zM452 294c-5.33301 6 -11.999 8.99902 -19.999 8.99902c-4.66699 0 -9.33398 -1 -14.001 -3c-2 -1.33301 -4 -2.83301 -6 -4.5s-4 -3.5 -6 -5.5v62h-28v-193h28v11
c5.33301 -5.33301 9.33301 -8.66602 12 -9.99902c4.66699 -2 9.66699 -3 15 -3c8 0 14.667 2.66699 20 8c4 6 6 13.667 6 23v79c0 12.667 -2.33301 21.667 -7 27zM430.001 191.999c0 -3.33301 -0.667969 -6.33301 -2.00098 -9c-2 -2 -4.66699 -3 -8 -3
s-5.66602 0.333008 -6.99902 1s-2.5 1.33398 -3.5 2.00098s-2.16699 1.66699 -3.5 3v89c1.33301 1.33301 3.33301 2.66602 6 3.99902c1.33301 0.666992 3.33301 1 6 1c4 0 7 -1 9 -3c2 -3.33301 3 -7 3 -11v-74zM547 293.999c-7.33301 7.33301 -17.333 11.002 -30 11.002
s-23 -4 -31 -12s-12 -18 -12 -30v-64c0 -12.667 3.66699 -23.334 11 -32.001c6.66699 -8 16.667 -12 30 -12c14 0 24.667 3.66699 32 11c7.33301 8.66699 11 19.667 11 33v8h-29v-7c0 -8.66699 -1 -14 -3 -16c-2 -2.66699 -5.33301 -4 -10 -4c-4 0 -7.33301 1.33301 -10 4
c-2 2.66699 -3 8 -3 16v27h55v36c0 13.333 -3.66699 23.666 -11 30.999zM529 249.001l-25 0.000976562v14c0 7.33301 0.666992 11.666 2 12.999c2 2.66699 5.33301 4 10 4s8 -1.33301 10 -4c2 -2 3 -6.33301 3 -13v-14zM434 594.002l32 0.000976562v-120
c0 -4.66699 0.666992 -7.33398 2 -8.00098c0.666992 -2 2.66699 -3 6 -3s6.33301 1.33301 9 4c2.66699 1.33301 6 4 10 8v119h32v-157h-32v18c-6 -7.33301 -12 -12.333 -18 -15c-8 -3.33301 -14.333 -5 -19 -5c-7.33301 0 -13 2.33301 -17 7
c-3.33301 5.33301 -5 12.333 -5 21v131zM228 650.003l23 -85h2l23 85h36l-42 -125v-88h-36v85l-42 128h36zM315 558.003c0 12.667 4.33105 22.333 12.998 29c8.66699 7.33301 20.334 11 35.001 11c12.667 0 23.334 -3.66699 32.001 -11c8.66699 -8 13 -18 13 -30v-81
c0 -14 -4.33301 -24.333 -13 -31c-8 -8 -19.333 -12 -34 -12c-14 0 -25 4 -33 12c-8.66699 8 -13 18.667 -13 32v81zM360.998 461.002c4.66699 0 8 1 10 3c2.66699 2.66699 4 6 4 10v85c0 4 -1.33301 7 -4 9c-2 2 -5.33301 3 -10 3c-4 0 -7.33301 -1 -10 -3
c-2 -2 -3 -5 -3 -9v-85c0 -4.66699 1 -8 3 -10s5.33301 -3 10 -3zM646.998 203.002c0 -14 -2.66699 -27.333 -8 -40s-12.666 -23.667 -21.999 -33s-20.333 -16.666 -33 -21.999s-26 -8 -40 -8h-356c-14 0 -27.333 2.66699 -40 8s-23.667 12.666 -33 21.999
s-16.666 20.333 -21.999 33s-8 26 -8 40v82c0 14 2.66699 27.333 8 40s12.666 23.667 21.999 33s20.333 16.666 33 21.999s26 8 40 8h356c14 0 27.333 -2.66699 40 -8s23.667 -12.666 33 -21.999s16.666 -20.333 21.999 -33s8 -26 8 -40v-82zM163.998 324.002h34v-165h32
v165h33v28h-99v-28z" />
    <glyph glyph-name="youtubeSquare" unicode="&#xe0123;" 
d="M422 301h28v-142h-28v16c-4 -5.33301 -9.66699 -9.66602 -17 -12.999c-4 -3.33301 -9.33301 -5 -16 -5c-7.33301 0 -12.333 2 -15 6c-3.33301 5.33301 -5 11.666 -5 18.999v119h29v-109c0 -4 0.333008 -6.33301 1 -7c0.666992 -1.33301 2.66699 -2 6 -2
c2 0 4.66699 1 8 3c4 2.66699 7 5 9 7v108zM258 324h34v-165h32v165h33v28h-99v-28zM455 461c4.66699 0 8 1 10 3c2.66699 2.66699 4 6 4 10v85c0 4 -1.33301 7 -4 9c-2 2 -5.33301 3 -10 3c-4 0 -7.33301 -1 -10 -3c-2 -2 -3 -5 -3 -9v-85c0 -4.66699 1 -8 3 -10
s5.33301 -3 10 -3zM546 294c4.66699 -5.33301 6.99902 -14.332 6.99902 -26.999v-79c0 -9.33301 -2 -17 -6 -23c-5.33301 -5.33301 -12 -8 -20 -8c-5.33301 0 -10.333 1 -15 3c-2.66699 1.33301 -6.66699 4.66602 -12 9.99902v-11h-28v193h28v-62c2 2 4 3.83301 6 5.5
s4 3.16699 6 4.5c4.66699 2 9.33398 3 14.001 3c8 0 14.667 -3 20 -9zM523.999 266.001c0 4 -0.999023 7.66699 -2.99902 11c-2 2 -5 3 -9 3c-2.66699 0 -4.66699 -0.333008 -6 -1c-2.66699 -1.33301 -4.66699 -2.66602 -6 -3.99902v-89
c1.33301 -1.33301 2.5 -2.33301 3.5 -3s2.16699 -1.33398 3.5 -2.00098s3.66602 -1 6.99902 -1s6 1 8 3c1.33301 2.66699 2 5.66699 2 9v74zM641 294.001c7.33301 -7.33301 11 -17.668 11 -31.001v-36h-55v-27c0 -8 1 -13.333 3 -16c2.66699 -2.66699 6 -4 10 -4
c4.66699 0 8 1.33301 10 4c2 2 3 7.33301 3 16v7h29v-8c0 -13.333 -3.66699 -24.333 -11 -33c-7.33301 -7.33301 -18 -11 -32 -11c-13.333 0 -23.333 4 -30 12c-7.33301 8.66699 -11 19.334 -11 32.001v64c0 12 4 22 12 30s18.333 12 31 12s22.667 -3.66699 30 -11z
M623 262.999c0 6.66699 -1 10.999 -3 12.999c-2 2.66699 -5.33301 4 -10 4s-8 -1.33301 -10 -4c-1.33301 -1.33301 -2 -5.66602 -2 -12.999v-14h25v14zM835 749.998v-750h-750v750h750zM528 462.998c0 -8.66699 1.66699 -15.668 5 -21.001c4 -4.66699 9.66699 -7 17 -7
c4.66699 0 11 1.66699 19 5c6 2.66699 12 7.66699 18 15v-18h32v157h-32v-119c-4 -4 -7.33301 -6.66699 -10 -8c-2.66699 -2.66699 -5.66699 -4 -9 -4s-5.33301 1 -6 3c-1.33301 0.666992 -2 3.33398 -2 8.00098v120h-32v-131zM409 476.997
c0 -13.333 4.33496 -23.999 13.002 -31.999c8 -8 19 -12 33 -12c14.667 0 26 4 34 12c8.66699 6.66699 13 17 13 31v81c0 12 -4.33301 22 -13 30c-8.66699 7.33301 -19.334 11 -32.001 11c-14.667 0 -26.334 -3.66699 -35.001 -11
c-8.66699 -6.66699 -13 -16.334 -13 -29.001v-81zM286.002 649.998l42 -128v-85h36v88l42 125h-36l-23 -85h-2l-23 85h-36zM741.002 284.998c0 14 -2.66699 27.333 -8 40s-12.666 23.667 -21.999 33s-20.333 16.666 -33 21.999s-26 8 -40 8h-356
c-14 0 -27.333 -2.66699 -40 -8s-23.667 -12.666 -33 -21.999s-16.666 -20.333 -21.999 -33s-8 -26 -8 -40v-82c0 -14 2.66699 -27.333 8 -40s12.666 -23.667 21.999 -33s20.333 -16.666 33 -21.999s26 -8 40 -8h356c14 0 27.333 2.66699 40 8s23.667 12.666 33 21.999
s16.666 20.333 21.999 33s8 26 8 40v82z" />
    <glyph glyph-name="linkedin" unicode="&#xe0124;" horiz-adv-x="578" 
d="M178 180h-88v263h88v-263zM134 479h-0.999023c-14.667 0 -26.334 4.33301 -35.001 13s-13 19.334 -13 32.001c0 13.333 4.5 24.333 13.5 33s20.833 13 35.5 13c15.333 0 27.333 -4.33301 36 -13s13 -19.667 13 -33c0 -12.667 -4.33301 -23.334 -13 -32.001
s-20.667 -13 -36 -13zM493.001 180h-88v141c0 17.333 -3.33301 31.5 -10 42.5s-18 16.5 -34 16.5c-12 0 -21.667 -3.33301 -29 -10s-12.666 -14 -15.999 -22c-2 -5.33301 -3 -12.333 -3 -21v-147h-87v122v141h87v-37c2.66699 4.66699 6.16699 9.5 10.5 14.5
s9.66602 9.66699 15.999 14s13.833 7.83301 22.5 10.5s18.667 4 30 4c29.333 0 53.5 -9.5 72.5 -28.5s28.5 -48.833 28.5 -89.5v-151z" />
    <glyph glyph-name="linkedinSquare" unicode="&#xe0125;" 
d="M835 750v-750h-750v750h750zM349 443h-88v-263h88v263zM305 479c15.333 0 27.332 4.33301 35.999 13s13 19.334 13 32.001c0 13.333 -4.33301 24.333 -13 33s-20.667 13 -36 13c-14.667 0 -26.5 -4.33301 -35.5 -13s-13.5 -19.667 -13.5 -33
c0 -12.667 4.33301 -23.334 13 -32.001s20.334 -13 35.001 -13h1zM663.999 331c0 40.667 -9.5 70.5 -28.5 89.5s-43.167 28.5 -72.5 28.5c-11.333 0 -21.333 -1.33301 -30 -4s-16.167 -6.16699 -22.5 -10.5s-11.666 -9 -15.999 -14s-7.83301 -9.83301 -10.5 -14.5v37h-87
v-141v-122h87v147c0 8.66699 1 15.667 3 21c3.33301 8 8.66602 15.333 15.999 22s17 10 29 10c16 0 27.333 -5.5 34 -16.5s10 -25.167 10 -42.5v-141h88v151z" />
    <glyph glyph-name="facebook" unicode="&#xe0126;" horiz-adv-x="454" 
d="M364 327l-102 0.000976562v-275h-105v275h-72v99h72v84c0 16.667 2.83301 32.667 8.5 48s14.167 28.833 25.5 40.5s26 21 44 28s39.333 10.5 64 10.5c10 0 19.167 -0.166992 27.5 -0.5s15.5 -0.833008 21.5 -1.5c7.33301 -0.666992 14 -1.33398 20 -2.00098l-2 -92h-63
c-17.333 0 -28.5 -3.83301 -33.5 -11.5s-7.5 -18.167 -7.5 -31.5v-72h107z" />
    <glyph glyph-name="facebookSquare" unicode="&#xe0127;" 
d="M835 750v-750h-750v750h750zM725 426l-107 -0.000976562v72c0 13.333 2.5 23.833 7.5 31.5s16.167 11.5 33.5 11.5h63l2 92c-6 0.666992 -12.667 1.33398 -20 2.00098c-6 0.666992 -13.167 1.16699 -21.5 1.5s-17.5 0.5 -27.5 0.5c-24.667 0 -46 -3.5 -64 -10.5
s-32.667 -16.333 -44 -28s-19.833 -25.167 -25.5 -40.5s-8.5 -31.333 -8.5 -48v-84h-72v-99h72v-275h105v275h102z" />
    <glyph glyph-name="flickr" unicode="&#xe0128;" horiz-adv-x="722" 
d="M207 252c-17.333 0 -33.333 3.16699 -48 9.5s-27.5 15.166 -38.5 26.499s-19.667 24.333 -26 39s-9.5 30.667 -9.5 48c0 16.667 3.16699 32.5 9.5 47.5s15 28.167 26 39.5s23.833 20.166 38.5 26.499s30.667 9.5 48 9.5c16.667 0 32.5 -3.16699 47.5 -9.5
s28.167 -15.166 39.5 -26.499s20.166 -24.5 26.499 -39.5s9.5 -30.833 9.5 -47.5c0 -17.333 -3.16699 -33.333 -9.5 -48s-15.166 -27.667 -26.499 -39s-24.5 -20.166 -39.5 -26.499s-30.833 -9.5 -47.5 -9.5zM515 252c-17.333 0 -33.333 3.16699 -48 9.5
s-27.667 15.166 -39 26.499s-20.166 24.333 -26.499 39s-9.5 30.667 -9.5 48c0 16.667 3.16699 32.5 9.5 47.5s15.166 28.167 26.499 39.5s24.333 20.166 39 26.499s30.667 9.5 48 9.5c16.667 0 32.5 -3.16699 47.5 -9.5s28 -15.166 39 -26.499s19.667 -24.5 26 -39.5
s9.5 -30.833 9.5 -47.5c0 -17.333 -3.16699 -33.333 -9.5 -48s-15 -27.667 -26 -39s-24 -20.166 -39 -26.499s-30.833 -9.5 -47.5 -9.5z" />
    <glyph glyph-name="flickrSquare" unicode="&#xe0129;" 
d="M835 750v-750h-750v750h750zM306 252c16.667 0 32.5 3.16699 47.5 9.5s28.167 15.166 39.5 26.499s20.166 24.333 26.499 39s9.5 30.667 9.5 48c0 16.667 -3.16699 32.5 -9.5 47.5s-15.166 28.167 -26.499 39.5s-24.5 20.166 -39.5 26.499s-30.833 9.5 -47.5 9.5
c-17.333 0 -33.333 -3.16699 -48 -9.5s-27.5 -15.166 -38.5 -26.499s-19.667 -24.5 -26 -39.5s-9.5 -30.833 -9.5 -47.5c0 -17.333 3.16699 -33.333 9.5 -48s15 -27.667 26 -39s23.833 -20.166 38.5 -26.499s30.667 -9.5 48 -9.5zM614 252c16.667 0 32.5 3.16699 47.5 9.5
s28 15.166 39 26.499s19.667 24.333 26 39s9.5 30.667 9.5 48c0 16.667 -3.16699 32.5 -9.5 47.5s-15 28.167 -26 39.5s-24 20.166 -39 26.499s-30.833 9.5 -47.5 9.5c-17.333 0 -33.333 -3.16699 -48 -9.5s-27.667 -15.166 -39 -26.499s-20.166 -24.5 -26.499 -39.5
s-9.5 -30.833 -9.5 -47.5c0 -17.333 3.16699 -33.333 9.5 -48s15.166 -27.667 26.499 -39s24.333 -20.166 39 -26.499s30.667 -9.5 48 -9.5z" />
    <glyph glyph-name="twitter" unicode="&#xe0130;" horiz-adv-x="714" 
d="M573 486c0 -2.66699 0.168945 -5.16406 0.501953 -7.49707s0.5 -4.5 0.5 -6.5c0 -37.333 -7 -74.833 -21 -112.5s-34.5 -71.667 -61.5 -102s-60.167 -55.166 -99.5 -74.499s-84.666 -29 -135.999 -29c-32 0 -62.333 4.33301 -91 13s-55.334 21 -80.001 37
c4.66699 -0.666992 9.16699 -1.16699 13.5 -1.5s8.5 -0.5 12.5 -0.5c26.667 0 51.667 4.16699 75 12.5s44.666 20.166 63.999 35.499c-24.667 0.666992 -46.334 8.16699 -65.001 22.5s-31.667 32.833 -39 55.5c3.33301 -1.33301 6.83301 -2 10.5 -2h10.5
c11.333 0 21 1.33301 29 4c-25.333 5.33301 -46.5 18 -63.5 38s-25.5 43.667 -25.5 71v2c15.333 -9.33301 32 -14 50 -14c-15.333 10 -27.333 23.167 -36 39.5s-13 34.166 -13 53.499c0 20 5 38.667 15 56c28 -34 61.667 -61.333 101 -82s82.333 -32.334 129 -35.001
c-2 8 -3 16.333 -3 25c0 15.333 3 29.833 9 43.5s14 25.5 24 35.5s21.833 18 35.5 24s28.167 9 43.5 9c32.667 0 59.667 -11.667 81 -35c25.333 5.33301 49 14.333 71 27c-8 -26.667 -24.333 -47.334 -49 -62.001c22.667 3.33301 44 9.33301 64 18
c-14 -22 -32.667 -41.333 -56 -58z" />
    <glyph glyph-name="twitterSquare" unicode="&#xe0131;" 
d="M835 750v-750h-750v750h750zM676 486c23.333 16.667 41.998 35.9971 55.998 57.9971c-20 -8.66699 -41.333 -14.667 -64 -18c24.667 14.667 41 35.334 49 62.001c-22 -12.667 -45.667 -21.667 -71 -27c-21.333 23.333 -48.333 35 -81 35c-15.333 0 -29.833 -3 -43.5 -9
s-25.5 -14 -35.5 -24s-18 -21.833 -24 -35.5s-9 -28.167 -9 -43.5c0 -8.66699 1 -17 3 -25c-46.667 2.66699 -89.667 14.334 -129 35.001s-73 48 -101 82c-10 -17.333 -15 -36 -15 -56c0 -19.333 4.33301 -37.166 13 -53.499s20.667 -29.5 36 -39.5
c-18 0 -34.667 4.66699 -50 14v-2c0 -27.333 8.5 -51 25.5 -71s38.167 -32.667 63.5 -38c-8 -2.66699 -17.667 -4 -29 -4h-10.5c-3.66699 0 -7.16699 0.666992 -10.5 2c7.33301 -22.667 20.333 -41.167 39 -55.5s40.334 -21.833 65.001 -22.5
c-19.333 -15.333 -40.666 -27.166 -63.999 -35.499s-48.333 -12.5 -75 -12.5c-4 0 -8.16699 0.166992 -12.5 0.5s-8.83301 0.833008 -13.5 1.5c24.667 -16 51.334 -28.333 80.001 -37s59 -13 91 -13c51.333 0 96.666 9.66699 135.999 29s72.5 44.166 99.5 74.499
s47.5 64.333 61.5 102s21 75.167 21 112.5c0 2 -0.166992 4.16699 -0.5 6.5s-0.5 4.83301 -0.5 7.5z" />
    <glyph glyph-name="github" unicode="&#xe0132;" horiz-adv-x="698" 
d="M247 0c9.33301 0 16.0068 2.1709 20.0068 6.50391s6 9.16602 6 14.499v66c-27.333 -6 -49.333 -6.66699 -66 -2s-29.667 11 -39 19c-11.333 9.33301 -19.666 20.666 -24.999 33.999c-4.66699 11.333 -9.33398 20.5 -14.001 27.5s-9.33398 12.833 -14.001 17.5
c-5.33301 5.33301 -10.333 9.33301 -15 12c-9.33301 5.33301 -14.333 9.66602 -15 12.999s0.333008 5.66602 3 6.99902c2.66699 2 7.66699 3 15 3c9.33301 -1.33301 17.666 -3.83301 24.999 -7.5s13.666 -8.16699 18.999 -13.5c6 -6 11 -12.333 15 -19
c8.66699 -14.667 18.334 -25 29.001 -31s21.167 -9.5 31.5 -10.5s20.166 -0.166992 29.499 2.5s16.666 5 21.999 7c1.33301 12.667 4.33301 23.167 9 31.5s9.66699 15.166 15 20.499c-21.333 2 -42.5 6.16699 -63.5 12.5s-39.667 16.5 -56 30.5s-29.666 32.667 -39.999 56
s-15.5 53.666 -15.5 90.999c0 21.333 3.5 40.5 10.5 57.5s16.833 32.167 29.5 45.5c-1.33301 2.66699 -2.83301 7 -4.5 13s-2.83398 13.333 -3.50098 22s-0.333984 18.667 0.999023 30s4.66602 23.666 9.99902 36.999c7.33301 2 16 1.66699 26 -1
c8.66699 -2 19.5 -5.83301 32.5 -11.5s28.833 -14.834 47.5 -27.501c15.333 4.66699 31.166 8 47.499 10s32.5 3 48.5 3c34.667 0 67 -4.33301 97 -13c18 12.667 33.667 21.834 47 27.501s24.333 9.5 33 11.5c10 2.66699 18.333 3 25 1
c5.33301 -13.333 8.66602 -25.666 9.99902 -36.999s1.83301 -21.333 1.5 -30s-1.5 -16 -3.5 -22s-3.33301 -10.333 -4 -13c26 -28 39 -62.333 39 -103c0 -37.333 -5.16699 -67.666 -15.5 -90.999s-23.666 -42 -39.999 -56s-35 -24 -56 -30s-42.167 -10.333 -63.5 -13
c7.33301 -6 13.5 -14.833 18.5 -26.5s7.5 -26.5 7.5 -44.5v-106c0 -5.33301 1.83301 -10.166 5.5 -14.499s10.5 -6.5 20.5 -6.5h-243z" />
    <glyph glyph-name="githubSquare" unicode="&#xe0133;" 
d="M835 750l-0.00683594 -750.004h-244c-10 0 -16.833 2.16699 -20.5 6.5s-5.5 9.16602 -5.5 14.499v106c0 18 -2.5 32.833 -7.5 44.5s-11.167 20.5 -18.5 26.5c21.333 2.66699 42.5 7 63.5 13s39.667 16 56 30s29.666 32.667 39.999 56s15.5 53.666 15.5 90.999
c0 40.667 -13 75 -39 103c0.666992 2.66699 2 7 4 13s3.16699 13.333 3.5 22s-0.166992 18.667 -1.5 30s-4.66602 23.666 -9.99902 36.999c-6.66699 2 -15 1.66699 -25 -1c-8.66699 -2 -19.667 -5.83301 -33 -11.5s-29 -14.834 -47 -27.501c-30 8.66699 -62.333 13 -97 13
c-16 0 -32.167 -1 -48.5 -3s-32.166 -5.33301 -47.499 -10c-18.667 12.667 -34.5 21.834 -47.5 27.501s-23.833 9.5 -32.5 11.5c-10 2.66699 -18.667 3 -26 1c-5.33301 -13.333 -8.66602 -25.666 -9.99902 -36.999s-1.66602 -21.333 -0.999023 -30s1.83398 -16 3.50098 -22
s3.16699 -10.333 4.5 -13c-12.667 -13.333 -22.5 -28.5 -29.5 -45.5s-10.5 -36.167 -10.5 -57.5c0 -37.333 5.16699 -67.666 15.5 -90.999s23.666 -42 39.999 -56s35 -24.167 56 -30.5s42.167 -10.5 63.5 -12.5c-5.33301 -5.33301 -10.333 -12.166 -15 -20.499
s-7.66699 -18.833 -9 -31.5c-5.33301 -2 -12.666 -4.33301 -21.999 -7s-19.166 -3.5 -29.499 -2.5s-20.833 4.5 -31.5 10.5s-20.334 16.333 -29.001 31c-4 6.66699 -9 13 -15 19c-5.33301 5.33301 -11.666 9.83301 -18.999 13.5s-15.666 6.16699 -24.999 7.5
c-7.33301 0 -12.333 -1 -15 -3c-2.66699 -1.33301 -3.66699 -3.66602 -3 -6.99902s5.66699 -7.66602 15 -12.999c4.66699 -2.66699 9.66699 -6.66699 15 -12c4.66699 -4.66699 9.33398 -10.5 14.001 -17.5s9.33398 -16.167 14.001 -27.5
c5.33301 -13.333 13.666 -24.666 24.999 -33.999c9.33301 -8 22.333 -14.333 39 -19s38.667 -4 66 2v-66c0 -5.33301 -2 -10.166 -6 -14.499s-10.667 -6.5 -20 -6.5h-263v750h750z" />
    <glyph glyph-name="mail2" unicode="&#xe0134;" horiz-adv-x="915" 
d="M828 148c0 -1.33301 -0.166992 -2.16895 -0.5 -2.50195s-0.5 -0.833008 -0.5 -1.5l-2 -2c-1.33301 -1.33301 -2.66602 -2.83301 -3.99902 -4.5s-3 -3.16699 -5 -4.5c-0.666992 0 -1.33398 -0.333008 -2.00098 -1s-2 -1 -4 -1c0 -0.666992 -0.666992 -1.33398 -2 -2.00098
c-0.666992 0 -1.16699 -0.166992 -1.5 -0.5s-0.833008 -0.5 -1.5 -0.5h-6h-682h-6c-0.666992 0 -1.16699 0.166992 -1.5 0.5s-0.833008 0.5 -1.5 0.5l-4 2c-1.33301 0 -2.33301 0.333008 -3 1c0 0.666992 -0.666992 1 -2 1c-3.33301 1.33301 -6.33301 4.33301 -9 9
c0 0.666992 -0.333008 1.33398 -1 2.00098l-2 4v1c0 0.666992 -0.166992 1 -0.5 1s-0.5 0.333008 -0.5 1v3c-0.666992 0.666992 -1 2.33398 -1 5.00098v492v2c0 2 0.333008 3.33301 1 4v3c0 0.666992 0.166992 1.16699 0.5 1.5s0.5 0.833008 0.5 1.5
c1.33301 1.33301 2 2.33301 2 3s0.166992 1 0.5 1s0.5 0.333008 0.5 1c0.666992 1.33301 1.16699 2 1.5 2s0.833008 0.666992 1.5 2c0 0.666992 0.333008 1 1 1c0.666992 1.33301 1.33398 2.16602 2.00098 2.49902s1.33398 0.833008 2.00098 1.5
c1.33301 0.666992 2.16602 1.16699 2.49902 1.5s1.16602 0.833008 2.49902 1.5h1c4.66699 2 9 3 13 3h682c1.33301 0 2.16602 -0.166992 2.49902 -0.5s1.16602 -0.5 2.49902 -0.5h4c1.33301 -0.666992 2.33301 -1.33398 3 -2.00098l4 -2h2
c0.666992 -1.33301 1.33398 -2.16602 2.00098 -2.49902s1.33398 -1.16602 2.00098 -2.49902l1 -1c1.33301 -1.33301 2.33301 -2.66602 3 -3.99902l2 -2c0 -0.666992 0.666992 -1.66699 2 -3c0 -1.33301 0.333008 -2.33301 1 -3v-3v-4v-2v-492v-5v-3c-2 -2 -2.66699 -3 -2 -3
zM149 235.997l170 172l-170 167v-339zM394 423.997c8.66699 -8.66699 18.6689 -15.167 30.002 -19.5s22.666 -6.5 33.999 -6.5s22.666 2.16699 33.999 6.5s21.333 10.833 30 19.5l199 195h-527zM193.002 190.997h529.001l-172 174c-28 -20 -58.667 -30 -92 -30
c-34.667 0 -65.334 10 -92.001 30zM767.003 235.997v339l-171 -167z" />
    <glyph glyph-name="mail2circle" unicode="&#xe0135;" horiz-adv-x="918" 
d="M833 748v-748h-748v748h748zM242 554l191 -187c7.33301 -7.33301 16 -11 26 -11s18.667 3.66699 26 11l191 187h-434zM216 230l145 146l-145 142v-288zM676 194l-151 151l-9 -9c-15.333 -15.333 -34.333 -23 -57 -23s-41.667 7.66699 -57 23l-9 9l-151 -151h434zM702 230
v288l-145 -142z" />
    <glyph glyph-name="globe" unicode="&#xe0184;" 
d="M460 750c52 0 100.667 -9.83301 146 -29.5s85 -46.5 119 -80.5s60.833 -73.667 80.5 -119s29.5 -94 29.5 -146s-9.83301 -100.667 -29.5 -146s-46.5 -85 -80.5 -119s-73.667 -60.833 -119 -80.5s-94 -29.5 -146 -29.5s-100.667 9.83301 -146 29.5s-85 46.5 -119 80.5
s-60.833 73.667 -80.5 119s-29.5 94 -29.5 146s9.83301 100.667 29.5 146s46.5 85 80.5 119s73.667 60.833 119 80.5s94 29.5 146 29.5zM757 413c-6 50 -23.667 95.333 -53 136s-66 72 -110 94c15.333 -30 27.333 -64.5 36 -103.5s14 -81.167 16 -126.5h111zM326 643
c-44 -22 -80.667 -53.333 -110 -94s-47 -86 -53 -136h111c1.33301 45.333 6.5 87.5 15.5 126.5s21.167 73.5 36.5 103.5zM163 338c6.66699 -52 25.332 -98.833 55.999 -140.5s69.334 -73.167 116.001 -94.5c-17.333 29.333 -31 63.833 -41 103.5s-16.667 83.5 -20 131.5
h-111zM459.998 87c10.667 0 21.998 5.66699 33.998 17s23.167 27.833 33.5 49.5s19.5 48 27.5 79s13 66.167 15 105.5h-221c2.66699 -39.333 7.83398 -74.5 15.501 -105.5s16.834 -57.333 27.501 -79s22 -38.167 34 -49.5s23.333 -17 34 -17zM570.996 413
c-2 40.667 -6.83105 77.167 -14.498 109.5s-16.834 59.833 -27.501 82.5s-22.167 40 -34.5 52s-23.833 18 -34.5 18c-11.333 0 -23 -6 -35 -18s-23.333 -29.333 -34 -52s-19.834 -50.167 -27.501 -82.5s-12.5 -68.833 -14.5 -109.5h222zM584.998 103
c46.667 21.333 85.332 52.833 115.999 94.5s49.334 88.5 56.001 140.5h-112c-2.66699 -48 -9.16699 -91.833 -19.5 -131.5s-23.833 -74.167 -40.5 -103.5z" />
    <glyph glyph-name="globeCircle" unicode="&#xe0185;" horiz-adv-x="919" 
d="M348 353c3.33301 -57.333 15.333 -104.332 36 -140.999c-28 13.333 -51.167 32.166 -69.5 56.499s-29.5 52.5 -33.5 84.5h67zM460 555.001c13.333 0 27.165 -13.8311 41.498 -41.498s22.833 -66.167 25.5 -115.5h-134c0.666992 24.667 3.33398 46.667 8.00098 66
s10.334 35.666 17.001 48.999s13.667 23.666 21 30.999s14.333 11 21 11zM378.999 536.003c-18.667 -37.333 -29 -83.332 -31 -137.999h-67c4 30 14.833 57.167 32.5 81.5s39.5 43.166 65.5 56.499zM459.999 203.004c-13.333 0 -27 13.167 -41 39.5
s-22.667 63.166 -26 110.499h133c-3.33301 -47.333 -12 -84.166 -26 -110.499s-27.333 -39.5 -40 -39.5zM459.999 750.004c52 0 100.667 -9.83301 146 -29.5s84.833 -46.5 118.5 -80.5s60.334 -73.667 80.001 -119s29.5 -94 29.5 -146s-9.83301 -100.667 -29.5 -146
s-46.334 -85 -80.001 -119s-73.167 -60.833 -118.5 -80.5s-94 -29.5 -146 -29.5s-100.667 9.83301 -146 29.5s-85 46.5 -119 80.5s-60.833 73.667 -80.5 119s-29.5 94 -29.5 146s9.83301 100.667 29.5 146s46.5 85 80.5 119s73.667 60.833 119 80.5s94 29.5 146 29.5z
M459.999 150.004c30.667 0 59.667 5.83301 87 17.5s51.333 27.834 72 48.501s36.834 44.5 48.501 71.5s17.5 56.167 17.5 87.5c0 30.667 -5.83301 59.667 -17.5 87s-27.834 51.333 -48.501 72s-44.667 36.834 -72 48.501s-56.333 17.5 -87 17.5
c-31.333 0 -60.5 -5.83301 -87.5 -17.5s-50.833 -27.834 -71.5 -48.501s-36.834 -44.667 -48.501 -72s-17.5 -56.333 -17.5 -87c0 -31.333 5.83301 -60.5 17.5 -87.5s27.834 -50.833 48.501 -71.5s44.5 -36.834 71.5 -48.501s56.167 -17.5 87.5 -17.5zM534.999 212.004
c20.667 36.667 32.667 83.666 36 140.999h67c-4 -32 -15.167 -60.167 -33.5 -84.5s-41.5 -43.166 -69.5 -56.499zM539.999 536.003c26.667 -13.333 48.667 -32.167 66 -56.5s28 -51.5 32 -81.5h-66c-3.33301 55.333 -14 101.333 -32 138z" />
    <glyph glyph-name="email" unicode="&#xe0186;" horiz-adv-x="918" 
d="M833 170c0 -2 -0.332031 -3.33105 -0.999023 -3.99805v-3c0 -0.666992 -0.166992 -1.16699 -0.5 -1.5s-0.5 -0.833008 -0.5 -1.5s-0.166992 -1.16699 -0.5 -1.5s-0.5 -0.833008 -0.5 -1.5s-0.333008 -1.33398 -1 -2.00098l-2 -4h-1
c0 -0.666992 -0.333008 -1.33398 -1 -2.00098c-1.33301 -1.33301 -2.33301 -2.66602 -3 -3.99902c-0.666992 0 -1.33398 -0.333008 -2.00098 -1c-1.33301 -0.666992 -2.16602 -1.16699 -2.49902 -1.5s-1.16602 -0.833008 -2.49902 -1.5l-2 -1c-1.33301 -1.33301 -3 -2 -5 -2
l-2 -1c-1.33301 0 -2.5 -0.166992 -3.5 -0.5s-2.16699 -0.5 -3.5 -0.5h-680c-1.33301 0 -2.5 0.166992 -3.5 0.5s-2.16699 0.5 -3.5 0.5c-0.666992 0 -1.33398 0.333008 -2.00098 1c-2 0 -3.66699 0.666992 -5 2c-0.666992 0 -1.16699 0.166992 -1.5 0.5
s-0.833008 0.5 -1.5 0.5c-1.33301 1.33301 -2.66602 2.33301 -3.99902 3l-2 1c-0.666992 2 -2 3.33301 -4 4c0 0.666992 -0.333008 1.33398 -1 2.00098l-2 4l-1 2c-0.666992 0.666992 -1 1.66699 -1 3c-0.666992 0.666992 -1 1.66699 -1 3s-0.333008 2.33301 -1 3v4v490v1v2
c0.666992 1.33301 1 2.66602 1 3.99902s0.333008 2.66602 1 3.99902v1c1.33301 1.33301 2.16602 2.66602 2.49902 3.99902s1.16602 2.66602 2.49902 3.99902c0 0.666992 0.166992 1 0.5 1s0.5 0.333008 0.5 1l6 6h1c1.33301 1.33301 4 2.66602 8 3.99902l2 1
c1.33301 0 2.83301 0.166992 4.5 0.5s3.16699 0.5 4.5 0.5h680c1.33301 0 2.83301 -0.166992 4.5 -0.5s3.16699 -0.5 4.5 -0.5c0.666992 -0.666992 1.33398 -1 2.00098 -1c4 -1.33301 6.66699 -2.66602 8 -3.99902c2 -1.33301 4.33301 -3.33301 7 -6
c0 -0.666992 0.166992 -1 0.5 -1s0.5 -0.333008 0.5 -1c1.33301 -1.33301 2.66602 -4 3.99902 -8h1v-1c0.666992 -1.33301 1 -2.66602 1 -3.99902s0.333008 -2.66602 1 -3.99902v-2v-1v-490zM153.001 237.002l214 154l-214 193v-347zM224.001 204.002h469.001l-194 140
l-17 -15c-7.33301 -6 -15 -9 -23 -9c-8.66699 0 -16.334 3 -23.001 9l-17 15zM765.002 237.002v347l-214 -193zM208.002 626.002l236 -213l15 -13l15 13l236 213h-502z" />
    <glyph glyph-name="emailCircle" unicode="&#xe0187;" 
d="M460 750c52 0 100.667 -9.83301 146 -29.5s85 -46.5 119 -80.5s60.833 -73.667 80.5 -119s29.5 -94 29.5 -146s-9.83301 -100.667 -29.5 -146s-46.5 -85 -80.5 -119s-73.667 -60.833 -119 -80.5s-94 -29.5 -146 -29.5s-100.667 9.83301 -146 29.5s-85 46.5 -119 80.5
s-60.833 73.667 -80.5 119s-29.5 94 -29.5 146s9.83301 100.667 29.5 146s46.5 85 80.5 119s73.667 60.833 119 80.5s94 29.5 146 29.5zM295 498l165 -148l165 148h-330zM268 247l143 102l-143 129v-231zM617 231l-132.998 96l-13 -12
c-2.66699 -2.66699 -6.33398 -4 -11.001 -4s-8.33398 1.33301 -11.001 4l-13 12l-133 -96h314zM652.002 478l-142 -129l142 -102v231z" />
    <glyph glyph-name="mail" unicode="&#xe0188;" horiz-adv-x="917" 
d="M719 426h-93v94h93v-94zM585 374h-309v39h309v-39zM585 243h-309v40h309v-40zM585 309h-309v39h309v-39zM798 644c9.33301 0 17.333 -3.33301 24 -10s10 -14.667 10 -24v-489c0 -9.33301 -3.33301 -17.333 -10 -24s-14.667 -10 -24 -10h-679
c-9.33301 0 -17.333 3.33301 -24 10s-10 14.667 -10 24v489c0 9.33301 3.33301 17.333 10 24s14.667 10 24 10h679zM764 575h-611v-420h611v420z" />
    <glyph glyph-name="mailcircle" unicode="&#xe0189;" 
d="M348 414h190v-23h-190v23zM348 334h190v-24h-190v24zM348 374h190v-24h-190v24zM562 479h58v-57h-58v57zM459 750c52 0 100.833 -9.83301 146.5 -29.5s85.5 -46.5 119.5 -80.5s60.833 -73.667 80.5 -119s29.5 -93.666 29.5 -144.999
c0 -52 -9.83301 -100.833 -29.5 -146.5s-46.5 -85.5 -80.5 -119.5s-73.833 -60.833 -119.5 -80.5s-94.5 -29.5 -146.5 -29.5c-51.333 0 -99.666 9.83301 -144.999 29.5s-85 46.5 -119 80.5s-60.833 73.833 -80.5 119.5s-29.5 94.5 -29.5 146.5
c0 51.333 9.83301 99.666 29.5 144.999s46.5 85 80.5 119s73.667 60.833 119 80.5s93.666 29.5 144.999 29.5zM659 233c4.66699 0 7 2.33301 7 7v291c0 4.66699 -2.33301 7 -7 7h-398c-4.66699 0 -7 -2.33301 -7 -7v-291c0 -4.66699 2.33301 -7 7 -7h398z" />
    <glyph glyph-name="phone" unicode="&#xe0190;" 
d="M348 246l18 -31l-202 -117l-18 31zM785 583c5.33301 -9.33301 9.33301 -18.6689 12 -28.002l-207 -119c-3.33301 3.33301 -6.66602 7 -9.99902 11s-6.33301 8.33301 -9 13c-6 10 -10.333 20.5 -13 31.5s-4 22.167 -4 33.5c-23.333 -9.33301 -47.333 -19.666 -72 -30.999
s-49.667 -24.333 -75 -39c-26 -15.333 -50.5 -31 -73.5 -47s-44.167 -32 -63.5 -48c19.333 -11.333 35 -27 47 -47c5.33301 -9.33301 9.33301 -18.666 12 -27.999l-207 -119c-3.33301 3.33301 -6.66602 7 -9.99902 11s-6.33301 8.33301 -9 13c-14.667 26 -20 53.333 -16 82
c0 16.667 6.5 36 19.5 58s31.333 45.167 55 69.5s52 49 85 74s69.167 48.833 108.5 71.5c41.333 24 81.666 44.167 120.999 60.5s75.833 28.333 109.5 36s63 11 88 10s43.833 -6.83301 56.5 -17.5c11.333 -5.33301 21.666 -12.333 30.999 -21s17.333 -18.667 24 -30z
M835 485.997l-202 -117l-18 31l202 117z" />
    <glyph glyph-name="phoneCircle" unicode="&#xe0191;" horiz-adv-x="919" 
d="M460 750c51.333 0 99.666 -9.83301 144.999 -29.5s85 -46.5 119 -80.5s60.833 -73.667 80.5 -119s29.5 -94 29.5 -146c0 -51.333 -9.83301 -99.833 -29.5 -145.5s-46.5 -85.5 -80.5 -119.5s-73.667 -60.833 -119 -80.5s-93.666 -29.5 -144.999 -29.5
c-52 -0 -100.667 9.83301 -146 29.5s-85 46.5 -119 80.5s-60.833 73.833 -80.5 119.5s-29.5 94.167 -29.5 145.5c0 52 9.83301 100.667 29.5 146s46.5 85 80.5 119s73.667 60.833 119 80.5s94 29.5 146 29.5zM407 274l-14 23l-122 -72l14 -23zM526 428
c2.66699 -5.33301 6.33594 -10.334 11.0029 -15.001l124 72l-3.5 9l-3.5 9c-3.33301 7.33301 -7.83301 13.5 -13.5 18.5s-11.834 9.16699 -18.501 12.5c-8 6.66699 -19.5 10.334 -34.5 11.001s-32.5 -1.5 -52.5 -6.5s-41.833 -12.5 -65.5 -22.5s-47.834 -22.333 -72.501 -37
c-24 -14 -46 -28.5 -66 -43.5s-37 -30 -51 -45s-24.833 -29.333 -32.5 -43s-11.5 -25.5 -11.5 -35.5c-3.33301 -17.333 0 -34 10 -50c1.33301 -3.33301 3 -6 5 -8s4 -4.33301 6 -7l124 73c-2 6 -4.33301 11.667 -7 17c-6 12 -15.667 21.667 -29 29
c23.333 19.333 50.666 39 81.999 59c30 16.667 59.667 30.667 89 42c0 -15.333 3.33301 -28.333 10 -39zM688.002 438.999l-15 23l-121 -71l14 -23z" />
    <glyph glyph-name="cell" unicode="&#xe0192;" horiz-adv-x="613" 
d="M443 750c23.333 0 43.333 -8.33301 60 -25s25 -36.667 25 -60v-580c0 -23.333 -8.33301 -43.333 -25 -60s-36.667 -25 -60 -25h-273c-11.333 0 -22.166 2.16699 -32.499 6.5s-19.333 10.333 -27 18s-13.834 16.667 -18.501 27s-7 21.5 -7 33.5v580
c0 12 2.33301 23.167 7 33.5s10.834 19.333 18.501 27s16.667 13.667 27 18s21.166 6.5 32.499 6.5h273zM242 678c-4.66699 0 -8.66699 -1.66699 -12 -5s-5 -7.33301 -5 -12s1.66699 -8.66699 5 -12s7.33301 -5 12 -5h137c5.33301 0 9.5 1.66699 12.5 5s4.5 7.33301 4.5 12
s-1.5 8.66699 -4.5 12s-7.16699 5 -12.5 5h-137zM311 63c9.33301 0 17.333 3.33301 24 10s10 14.667 10 24s-3.33301 17.333 -10 24s-14.667 10 -24 10s-17.333 -3.33301 -24 -10s-10 -14.667 -10 -24s3.33301 -17.333 10 -24s14.667 -10 24 -10zM482 590
c0 5.33301 -1.66699 9.66602 -5 12.999s-7.66602 5 -12.999 5h-307c-5.33301 0 -9.66602 -1.66699 -12.999 -5s-5 -7.66602 -5 -12.999v-410c0 -5.33301 1.66699 -9.66602 5 -12.999s7.66602 -5 12.999 -5h307c5.33301 0 9.66602 1.66699 12.999 5s5 7.66602 5 12.999v410z
" />
    <glyph glyph-name="cellCircle" unicode="&#xe0193;" 
d="M459 750c52 0 100.833 -9.83301 146.5 -29.5s85.5 -46.5 119.5 -80.5s60.833 -73.667 80.5 -119s29.5 -93.666 29.5 -144.999c0 -52 -9.83301 -100.833 -29.5 -146.5s-46.5 -85.5 -80.5 -119.5s-73.833 -60.833 -119.5 -80.5s-94.5 -29.5 -146.5 -29.5
c-51.333 0 -99.666 9.83301 -144.999 29.5s-85 46.5 -119 80.5s-60.833 73.833 -80.5 119.5s-29.5 94.5 -29.5 146.5c0 51.333 9.83301 99.666 29.5 144.999s46.5 85 80.5 119s73.667 60.833 119 80.5s93.666 29.5 144.999 29.5zM593 549c0 14 -5 26 -15 36s-22 15 -36 15
h-164c-14 0 -26 -5 -36 -15s-15 -22 -15 -36v-348c0 -14 5 -26 15 -36s22 -15 36 -15h164c14 0 26 5 36 15s15 22 15 36v348zM463 228c5.33301 0 10 -2 14 -6s6 -8.66699 6 -14s-2 -10 -6 -14s-8.66699 -6 -14 -6c-6.66699 0 -12 2 -16 6s-6 8.66699 -6 14s2 10 6 14
s9.33301 6 16 6zM421 537c-6.66699 0 -10 3.33301 -10 10s3.33301 10 10 10h83c6.66699 0 10 -3.33301 10 -10s-3.33301 -10 -10 -10h-83zM555 515c7.33301 0 11 -3.66699 11 -11v-246c0 -7.33301 -3.66699 -11 -11 -11h-185c-7.33301 0 -11 3.66699 -11 11v246
c0 7.33301 3.66699 11 11 11h185z" />
    <glyph glyph-name="fax" unicode="&#xe0194;" horiz-adv-x="919" 
d="M801 451c9.33301 0 17.166 -3.16504 23.499 -9.49805s9.5 -14.166 9.5 -23.499v-386c0 -8.66699 -3.16699 -16.167 -9.5 -22.5s-14.166 -9.5 -23.499 -9.5h-578c-19.333 0 -37.333 3.16699 -54 9.5s-31.167 14.833 -43.5 25.5s-22.166 23.167 -29.499 37.5
s-11 29.5 -11 45.5v331c0 16 3.5 31 10.5 45s16.667 26.333 29 37s26.666 19.167 42.999 25.5s33.833 9.83301 52.5 10.5v126c0 9.33301 3.16699 17.166 9.5 23.499s14.166 9.5 23.499 9.5h319c1.33301 0 2.33301 -0.166992 3 -0.5s1.66699 -0.5 3 -0.5h1
c1.33301 -0.666992 2.5 -1.16699 3.5 -1.5s2.16699 -0.833008 3.5 -1.5c0.666992 0 1.33398 -0.333008 2.00098 -1c2 -0.666992 4.33301 -2.33398 7 -5.00098l154 -154c2 -2 3.66699 -4.33301 5 -7c0.666992 -0.666992 1 -1.33398 1 -2.00098c2 -2 3 -4.66699 3 -8
c0.666992 -1.33301 1 -3.33301 1 -6v-88h42zM297 449.002c0 2 -0.666016 4.99707 -1.99902 8.99707c0 2 -0.333008 3.33301 -1 4c0 1.33301 -0.666992 2.66602 -2 3.99902c-5.33301 10.667 -14.166 19.334 -26.499 26.001s-26.5 10 -42.5 10c-10 0 -19.5 -1.5 -28.5 -4.5
s-16.833 -7.16699 -23.5 -12.5c-0.666992 0 -1 -0.333008 -1 -1c-4 -2.66699 -6.66699 -4.66699 -8 -6c-0.666992 -0.666992 -1 -1.16699 -1 -1.5s-0.333008 -0.833008 -1 -1.5c-0.666992 -1.33301 -1.33398 -2.33301 -2.00098 -3s-1.33398 -1.66699 -2.00098 -3
s-1.16699 -2.16602 -1.5 -2.49902s-0.833008 -1.16602 -1.5 -2.49902c0 -1.33301 -0.166992 -2.16602 -0.5 -2.49902s-0.5 -0.833008 -0.5 -1.5c-0.666992 -2 -1.16699 -3.83301 -1.5 -5.5s-0.5 -3.5 -0.5 -5.5v-331c0 -14.667 7.33301 -27.167 22 -37.5
s31.667 -15.5 51 -15.5c20 0 37.333 5.16699 52 15.5s22 22.833 22 37.5v255v76zM285.001 553.999c22.667 -9.33301 41 -23.166 55 -41.499s21.333 -38.833 22 -61.5h332v55h-122c-9.33301 0 -17 3.16699 -23 9.5s-9 14.166 -9 23.499v121h-255v-106zM471.001 113.999
c7.33301 0 13.5 2.5 18.5 7.5s7.5 11.167 7.5 18.5s-2.5 13.5 -7.5 18.5s-11.167 7.5 -18.5 7.5s-13.5 -2.5 -18.5 -7.5s-7.5 -11.167 -7.5 -18.5s2.5 -13.5 7.5 -18.5s11.167 -7.5 18.5 -7.5zM471.001 198.999c7.33301 0 13.5 2.5 18.5 7.5s7.5 11.167 7.5 18.5
s-2.5 13.5 -7.5 18.5s-11.167 7.5 -18.5 7.5s-13.5 -2.5 -18.5 -7.5s-7.5 -11.167 -7.5 -18.5s2.5 -13.5 7.5 -18.5s11.167 -7.5 18.5 -7.5zM471.001 283.999c7.33301 0 13.5 2.66699 18.5 8s7.5 11.666 7.5 18.999s-2.5 13.5 -7.5 18.5s-11.167 7.5 -18.5 7.5
s-13.5 -2.5 -18.5 -7.5s-7.5 -11.167 -7.5 -18.5s2.5 -13.666 7.5 -18.999s11.167 -8 18.5 -8zM571.001 113.999c7.33301 0 13.5 2.5 18.5 7.5s7.5 11.167 7.5 18.5s-2.5 13.5 -7.5 18.5s-11.167 7.5 -18.5 7.5s-13.5 -2.5 -18.5 -7.5s-7.5 -11.167 -7.5 -18.5
s2.5 -13.5 7.5 -18.5s11.167 -7.5 18.5 -7.5zM571.001 198.999c7.33301 0 13.5 2.5 18.5 7.5s7.5 11.167 7.5 18.5s-2.5 13.5 -7.5 18.5s-11.167 7.5 -18.5 7.5s-13.5 -2.5 -18.5 -7.5s-7.5 -11.167 -7.5 -18.5s2.5 -13.5 7.5 -18.5s11.167 -7.5 18.5 -7.5zM571.001 283.999
c7.33301 0 13.5 2.66699 18.5 8s7.5 11.666 7.5 18.999s-2.5 13.5 -7.5 18.5s-11.167 7.5 -18.5 7.5s-13.5 -2.5 -18.5 -7.5s-7.5 -11.167 -7.5 -18.5s2.5 -13.666 7.5 -18.999s11.167 -8 18.5 -8zM672.001 113.999c7.33301 0 13.5 2.5 18.5 7.5s7.5 11.167 7.5 18.5
s-2.5 13.5 -7.5 18.5s-11.167 7.5 -18.5 7.5s-13.5 -2.5 -18.5 -7.5s-7.5 -11.167 -7.5 -18.5s2.5 -13.5 7.5 -18.5s11.167 -7.5 18.5 -7.5zM672.001 198.999c7.33301 0 13.5 2.5 18.5 7.5s7.5 11.167 7.5 18.5s-2.5 13.5 -7.5 18.5s-11.167 7.5 -18.5 7.5
s-13.5 -2.5 -18.5 -7.5s-7.5 -11.167 -7.5 -18.5s2.5 -13.5 7.5 -18.5s11.167 -7.5 18.5 -7.5zM672.001 283.999c7.33301 0 13.5 2.66699 18.5 8s7.5 11.666 7.5 18.999s-2.5 13.5 -7.5 18.5s-11.167 7.5 -18.5 7.5s-13.5 -2.5 -18.5 -7.5s-7.5 -11.167 -7.5 -18.5
s2.5 -13.666 7.5 -18.999s11.167 -8 18.5 -8z" />
    <glyph glyph-name="faxCircle" unicode="&#xe0195;" 
d="M476 320c5.33301 0 9.83301 -1.83301 13.5 -5.5s5.5 -8.16699 5.5 -13.5s-1.83301 -9.83301 -5.5 -13.5s-8.16699 -5.5 -13.5 -5.5s-10 1.83301 -14 5.5s-6 8.16699 -6 13.5s2 9.83301 6 13.5s8.66699 5.5 14 5.5zM476 270c5.33301 0 9.83301 -1.66699 13.5 -5
s5.5 -7.66602 5.5 -12.999s-1.83301 -9.83301 -5.5 -13.5s-8.16699 -5.5 -13.5 -5.5s-10 1.83301 -14 5.5s-6 8.16699 -6 13.5s2 9.66602 6 12.999s8.66699 5 14 5zM476 369c5.33301 0 9.83301 -1.83301 13.5 -5.5s5.5 -8.16699 5.5 -13.5s-1.83301 -9.83301 -5.5 -13.5
s-8.16699 -5.5 -13.5 -5.5s-10 1.83301 -14 5.5s-6 8.16699 -6 13.5s2 9.83301 6 13.5s8.66699 5.5 14 5.5zM591 369c5.33301 0 9.83301 -1.83301 13.5 -5.5s5.5 -8.16699 5.5 -13.5s-1.83301 -9.83301 -5.5 -13.5s-8.16699 -5.5 -13.5 -5.5s-9.66602 1.83301 -12.999 5.5
s-5 8.16699 -5 13.5s1.66699 9.83301 5 13.5s7.66602 5.5 12.999 5.5zM591 320c5.33301 0 9.83301 -1.83301 13.5 -5.5s5.5 -8.16699 5.5 -13.5s-1.83301 -9.83301 -5.5 -13.5s-8.16699 -5.5 -13.5 -5.5s-9.66602 1.83301 -12.999 5.5s-5 8.16699 -5 13.5
s1.66699 9.83301 5 13.5s7.66602 5.5 12.999 5.5zM591 270c5.33301 0 9.83301 -1.66699 13.5 -5s5.5 -7.66602 5.5 -12.999s-1.83301 -9.83301 -5.5 -13.5s-8.16699 -5.5 -13.5 -5.5s-9.66602 1.83301 -12.999 5.5s-5 8.16699 -5 13.5s1.66699 9.66602 5 12.999
s7.66602 5 12.999 5zM461 750c51.333 0 99.666 -9.83301 144.999 -29.5s85 -46.5 119 -80.5s60.833 -73.833 80.5 -119.5s29.5 -94.5 29.5 -146.5c0 -51.333 -9.83301 -99.666 -29.5 -144.999s-46.5 -85 -80.5 -119s-73.667 -60.833 -119 -80.5
s-93.666 -29.5 -144.999 -29.5c-52 0 -100.833 9.83301 -146.5 29.5s-85.5 46.5 -119.5 80.5s-60.833 73.667 -80.5 119s-29.5 93.666 -29.5 144.999c0 52 9.83301 100.833 29.5 146.5s46.5 85.5 80.5 119.5s73.833 60.833 119.5 80.5s94.5 29.5 146.5 29.5zM551 537h70
l-70 70v-70zM335 463c0 10.667 -5.16699 19.667 -15.5 27s-22.5 11 -36.5 11c-14.667 0 -27.167 -3.66699 -37.5 -11s-15.5 -16.333 -15.5 -27v-239c0 -10 5.16699 -18.833 15.5 -26.5s22.833 -11.5 37.5 -11.5c14 0 26.167 3.83301 36.5 11.5s15.5 16.5 15.5 26.5v239z
M324 529c14.667 -6 26.5 -14.832 35.5 -26.499s13.5 -24.834 13.5 -39.501v-9h260v44h-102c-5.33301 0 -9.83301 2 -13.5 6s-5.5 8.66699 -5.5 14v101h-170h-9c-6 0 -9 -3 -9 -9v-8v-73zM675 397.001c0 12.667 -6.33301 19 -19 19h-283v-192c0 -13.333 -4.33301 -26 -13 -38
h296c5.33301 0 9.83301 2 13.5 6s5.5 8.66699 5.5 14v191zM534 320.001c5.33301 0 9.66602 -1.83301 12.999 -5.5s5 -8.16699 5 -13.5s-1.66699 -9.83301 -5 -13.5s-7.66602 -5.5 -12.999 -5.5s-9.83301 1.83301 -13.5 5.5s-5.5 8.16699 -5.5 13.5s1.83301 9.83301 5.5 13.5
s8.16699 5.5 13.5 5.5zM534 270.001c5.33301 0 9.66602 -1.66699 12.999 -5s5 -7.66602 5 -12.999s-1.66699 -9.83301 -5 -13.5s-7.66602 -5.5 -12.999 -5.5s-9.83301 1.83301 -13.5 5.5s-5.5 8.16699 -5.5 13.5s1.83301 9.66602 5.5 12.999s8.16699 5 13.5 5zM534 369.001
c5.33301 0 9.66602 -1.83301 12.999 -5.5s5 -8.16699 5 -13.5s-1.66699 -9.83301 -5 -13.5s-7.66602 -5.5 -12.999 -5.5s-9.83301 1.83301 -13.5 5.5s-5.5 8.16699 -5.5 13.5s1.83301 9.83301 5.5 13.5s8.16699 5.5 13.5 5.5z" />
    <glyph glyph-name="document" unicode="&#xe0246;" horiz-adv-x="762" 
d="M272 515c-14 0 -26 4.83301 -36 14.5s-15 21.5 -15 35.5s5 25.833 15 35.5s22 14.5 36 14.5c13.333 0 25 -4.83301 35 -14.5s15 -21.5 15 -35.5s-5 -25.833 -15 -35.5s-21.667 -14.5 -35 -14.5zM204 202h354v-50h-354v50zM204 437h354v-50h-354v50zM204 319h354v-50h-354
v50zM676 561c0.666992 -1.33301 1 -3.33203 1 -5.99902v-521c0 -9.33301 -3.33301 -17.333 -10 -24s-14.667 -10 -24 -10h-524c-9.33301 0 -17.333 3.33301 -24 10s-10 14.667 -10 24v682c0 9.33301 3.33301 17.333 10 24s14.667 10 24 10h363
c5.33301 0 10.333 -1.33301 15 -4l1 -1l4 -2c1.33301 -0.666992 2.66602 -1.66699 3.99902 -3l120 -121l41 -40c2 -2 3.66699 -4.33301 5 -7c0 -0.666992 0.333008 -1.33398 1 -2.00098c0.666992 -1.33301 1.33398 -2.83301 2.00098 -4.5s1 -3.16699 1 -4.5zM609 521.001
h-127c-9.33301 0 -17.5 3.33301 -24.5 10s-10.5 14.667 -10.5 24v127h-294v-614h456v453z" />
    <glyph glyph-name="documentCircle" unicode="&#xe0247;" 
d="M354 412h212v-30h-212v30zM460 750c51.333 0 99.833 -9.83301 145.5 -29.5s85.5 -46.5 119.5 -80.5s60.833 -73.667 80.5 -119s29.5 -94 29.5 -146c0 -51.333 -9.83301 -99.833 -29.5 -145.5s-46.5 -85.5 -80.5 -119.5s-73.833 -60.833 -119.5 -80.5
s-94.167 -29.5 -145.5 -29.5c-52 -0 -100.667 9.83301 -146 29.5s-85 46.5 -119 80.5s-60.833 73.833 -80.5 119.5s-29.5 94.167 -29.5 145.5c0 52 9.83301 100.667 29.5 146s46.5 85 80.5 119s73.667 60.833 119 80.5s94 29.5 146 29.5zM539 502h88l-88 87v-87zM638 464
h-130c-4.66699 0 -7 2.33301 -7 7v129h-199v-1h-13c-4.66699 0 -7 -2.33301 -7 -7v-13v-408v-13c0 -4.66699 2.33301 -7 7 -7h13h315h1h12c5.33301 0 8 2.33301 8 7v13v293zM394 459c-8 0 -15 2.83301 -21 8.5s-9 12.834 -9 21.501s3 15.834 9 21.501s13 8.5 21 8.5
c8.66699 0 15.834 -2.83301 21.501 -8.5s8.5 -12.834 8.5 -21.501s-2.83301 -15.834 -8.5 -21.501s-12.834 -8.5 -21.501 -8.5zM354 342h212v-31h-212v31zM354 271h212v-30h-212v30z" />
    <glyph glyph-name="pdfIcon" unicode="&#xe0248;" horiz-adv-x="762" 
d="M273 465c9.33301 0 17 -3 23 -9s9 -13.667 9 -23v-73c0 -9.33301 -3 -17 -9 -23s-13.667 -9 -23 -9h-37v-97c0 -8.66699 -4.33301 -13 -13 -13c-9.33301 0 -14 4.33301 -14 13v221c0 8.66699 4.66699 13 14 13h50zM278 433c0 3.33301 -1.66699 5 -5 5h-37v-83h37
c3.33301 0 5 1.66699 5 5v73zM395 465c13.333 0 24.666 -5.33301 33.999 -16s14 -23.667 14 -39v-137c0 -15.333 -4.66699 -28.333 -14 -39s-20.666 -16 -33.999 -16h-48c-9.33301 0 -14 4.33301 -14 13v221c0 8.66699 4.66699 13 14 13h48zM415 410
c0 7.33301 -2 13.833 -6 19.5s-8.66699 8.5 -14 8.5h-35v-193h35c5.33301 0 10 2.83301 14 8.5s6 12.167 6 19.5v137zM471 452c0 8.66699 4.33301 13 13 13h55c9.33301 0 14 -4.33301 14 -13c0 -9.33301 -4.66699 -14 -14 -14h-41v-83h41c9.33301 0 14 -4.33301 14 -13
c0 -9.33301 -4.66699 -14 -14 -14h-41v-97c0 -8.66699 -4.66699 -13 -14 -13c-8.66699 0 -13 4.33301 -13 13v221zM676 561c0.666992 -1.33301 1.00098 -3.66699 1.00098 -7v-520c0 -9.33301 -3.33301 -17.333 -10 -24s-14.667 -10 -24 -10h-524
c-9.33301 -0 -17.333 3.33301 -24 10s-10 14.667 -10 24v682c0 9.33301 3.33301 17.333 10 24s14.667 10 24 10h362c3.33301 0 5.66602 -0.333008 6.99902 -1c3.33301 0 6 -1 8 -3c1.33301 0 2 -0.333008 2 -1c2 -0.666992 4.33301 -2.33398 7 -5.00098l162 -161
c1.33301 -1.33301 2.33301 -2.66602 3 -3.99902l2 -4c0.666992 0 1 -0.666992 1 -2c2 -2 3 -4.66699 3 -8zM609.001 519.999h-128c-9.33301 0 -17.333 3.33301 -24 10s-10 14.667 -10 24v128h-294v-614h456v452z" />
    <glyph glyph-name="pdfCircle" unicode="&#xe0249;" 
d="M378 419c6.66699 0 12.334 -2.33105 17.001 -6.99805s7 -10.334 7 -17.001v-56c0 -6.66699 -2.33301 -12.334 -7 -17.001s-10.334 -7 -17.001 -7h-28v-74c0 -6.66699 -3.66699 -10 -11 -10c-6.66699 0 -10 3.33301 -10 10v168c0 6.66699 3.33301 10 10 10h39z
M381 395.002c0 2 -1 3 -3 3h-28v-62h28c2 0 3 1 3 3v56zM470 419.002c10.667 0 19.5 -4.00098 26.5 -12.001s10.5 -18 10.5 -30v-104c0 -11.333 -3.5 -21.166 -10.5 -29.499s-15.833 -12.5 -26.5 -12.5h-36c-7.33301 0 -11 3.33301 -11 10v168c0 6.66699 3.66699 10 11 10
h36zM486 377.001c0 6 -1.5 11 -4.5 15s-6.83301 6 -11.5 6h-26v-146h26c4.66699 0 8.5 2 11.5 6s4.5 9 4.5 15v104zM460 750.001c52 0 100.667 -9.83301 146 -29.5s85 -46.334 119 -80.001s60.833 -73.334 80.5 -119.001s29.5 -94.5 29.5 -146.5
s-9.83301 -100.833 -29.5 -146.5s-46.5 -85.334 -80.5 -119.001s-73.667 -60.334 -119 -80.001s-94 -29.5 -146 -29.5s-100.833 9.83301 -146.5 29.5s-85.334 46.334 -119.001 80.001s-60.334 73.334 -80.001 119.001s-29.5 94.5 -29.5 146.5s9.83301 100.833 29.5 146.5
s46.334 85.334 80.001 119.001s73.334 60.334 119.001 80.001s94.5 29.5 146.5 29.5zM539 501.001h88l-88 89v-89zM637 463.001h-129c-4.66699 0 -7 2.66699 -7 8v129h-198h-13c-4.66699 0 -7 -2.33301 -7 -7v-13v-410v-1v-12c0 -4.66699 2.33301 -7 7 -7h13h313h1h13
c4.66699 0 7 2.33301 7 7v13v293zM538 231.001c-6.66699 0 -10 3.33301 -10 10v168c0 6.66699 3.33301 10 10 10h42c7.33301 0 11 -3.33301 11 -10c0 -7.33301 -3.66699 -11 -11 -11h-31v-62h31c7.33301 0 11 -3.66699 11 -11c0 -6.66699 -3.66699 -10 -11 -10h-31v-74
c0 -6.66699 -3.66699 -10 -11 -10z" />
    <glyph glyph-name="upload" unicode="&#xe0250;" horiz-adv-x="762" 
d="M508 398c7.33301 -6.66699 10.9971 -14.667 10.9971 -24s-3.66699 -17.333 -11 -24c-6.66699 -6.66699 -14.667 -10 -24 -10c-8 0 -16 3.33301 -24 10l-44 45v-236c0 -9.33301 -3.33301 -17.333 -10 -24s-14.667 -10 -24 -10c-10 0 -18.333 3.33301 -25 10
s-10 14.667 -10 24v236l-45 -45c-6.66699 -6.66699 -14.667 -10 -24 -10s-17.333 3.33301 -24 10s-10 14.667 -10 24s3.33301 17.333 10 24l103 104c0.666992 1.33301 2.33398 2.66602 5.00098 3.99902l2 2c0.666992 0 1.33398 0.166992 2.00098 0.5
s1.33398 0.5 2.00098 0.5c0.666992 0.666992 1.66699 1 3 1c0.666992 0.666992 1.66699 1 3 1c1.33301 0.666992 3.33301 1 6 1h2c2.66699 0 4.66699 -0.333008 6 -1c1.33301 0 2.33301 -0.333008 3 -1c2 0 3.33301 -0.333008 4 -1c0.666992 0 1.16699 -0.166992 1.5 -0.5
s0.833008 -0.5 1.5 -0.5l2 -2c2.66699 -1.33301 4.66699 -2.66602 6 -3.99902zM675.997 561c0.666992 -1.33301 1 -3.66602 1 -6.99902v-521c0 -9.33301 -3.33301 -17.166 -10 -23.499s-14.667 -9.5 -24 -9.5h-524c-9.33301 0 -17.333 3.16699 -24 9.5
s-10 14.166 -10 23.499v683c0 9.33301 3.33301 17.333 10 24s14.667 10 24 10h362c3.33301 0 5.66602 -0.333008 6.99902 -1c3.33301 0 6 -1 8 -3c1.33301 0 2 -0.333008 2 -1c2 -0.666992 4.33301 -2.33398 7 -5.00098l162 -162c2.66699 -2.66699 4.33398 -5 5.00098 -7
c0.666992 0 1 -0.666992 1 -2c2 -2 3 -4.66699 3 -8zM608.997 520h-128.001c-9.33301 0 -17.166 3.33301 -23.499 10s-9.5 14.667 -9.5 24v128h-295v-614h456v452z" />
    <glyph glyph-name="uploadCircle" unicode="&#xe0251;" 
d="M459 750c52 0 100.833 -9.83301 146.5 -29.5s85.5 -46.5 119.5 -80.5s60.833 -73.667 80.5 -119s29.5 -93.666 29.5 -144.999c0 -52 -9.83301 -100.833 -29.5 -146.5s-46.5 -85.5 -80.5 -119.5s-73.833 -60.833 -119.5 -80.5s-94.5 -29.5 -146.5 -29.5
c-51.333 0 -99.666 9.83301 -144.999 29.5s-85 46.5 -119 80.5s-60.833 73.833 -80.5 119.5s-29.5 94.5 -29.5 146.5c0 51.333 9.83301 99.666 29.5 144.999s46.5 85 80.5 119s73.667 60.833 119 80.5s93.666 29.5 144.999 29.5zM539 501h88l-88 89v-89zM638 464h-129
c-5.33301 0 -8 2.33301 -8 7v129h-199h-13c-4.66699 0 -7 -2.33301 -7 -7v-13v-410v-13c0 -4.66699 2.33301 -7 7 -7h13h315h1h12c5.33301 0 8 2.33301 8 7v13v294zM475 451l61.001 -61c4 -4 6 -9 6 -15s-2 -11 -6 -15s-8.66699 -6 -14 -6s-10 2 -14 6l-27 28v-142
c0 -6 -2 -11.167 -6 -15.5s-9.33301 -6.5 -16 -6.5c-5.33301 0 -10 2.16699 -14 6.5s-6 9.5 -6 15.5v142l-27 -28c-4 -4 -8.83301 -6 -14.5 -6s-10.5 2 -14.5 6c-3.33301 4 -5 9 -5 15s1.66699 11 5 15l62 61c1.33301 1.33301 3.66602 2.66602 6.99902 3.99902
c2.66699 1.33301 5 2 7 2c3.33301 0 6.33301 -0.666992 9 -2c3.33301 -1.33301 5.33301 -2.66602 6 -3.99902h1z" />
    <glyph glyph-name="download" unicode="&#xe0252;" horiz-adv-x="763" 
d="M460 286c7.33301 7.33301 15.499 11 24.499 11s17.167 -3.66699 24.5 -11c6.66699 -6.66699 10 -14.667 10 -24s-3.33301 -17.333 -10 -24l-104 -104c-0.666992 -1.33301 -2.33398 -2.66602 -5.00098 -3.99902l-2 -2c-0.666992 0 -1.16699 -0.166992 -1.5 -0.5
s-1.16602 -0.5 -2.49902 -0.5c-0.666992 -0.666992 -1.66699 -1 -3 -1c-0.666992 -0.666992 -1.66699 -1 -3 -1c-1.33301 -0.666992 -3.66602 -1 -6.99902 -1c-2.66699 0 -4.66699 0.333008 -6 1c-1.33301 0 -2.33301 0.333008 -3 1
c-1.33301 0 -2.66602 0.333008 -3.99902 1c-0.666992 0 -1.16699 0.166992 -1.5 0.5s-0.833008 0.5 -1.5 0.5l-2 2c-2.66699 1.33301 -4.66699 2.66602 -6 3.99902l-104 104c-6.66699 6.66699 -10 14.667 -10 24s3.33301 17.333 10 24c7.33301 7.33301 15.666 11 24.999 11
s17.333 -3.66699 24 -11l45 -45v236c0 9.33301 3.33301 17.333 10 24s14.667 10 24 10s17.333 -3.33301 24 -10s10 -14.667 10 -24v-236zM676.999 560c0 -1.33301 0.170898 -2.33203 0.503906 -2.99902s0.5 -1.66699 0.5 -3v-520c0 -9.33301 -3.5 -17.333 -10.5 -24
s-15.167 -10 -24.5 -10h-524c-9.33301 0 -17.333 3.33301 -24 10s-10 14.667 -10 24v682c0 9.33301 3.33301 17.333 10 24s14.667 10 24 10h362c3.33301 0 5.66602 -0.333008 6.99902 -1c3.33301 0 6 -1 8 -3c1.33301 0 2 -0.333008 2 -1l4 -2
c1.33301 -0.666992 2.66602 -1.66699 3.99902 -3l162 -161c1.33301 -1.33301 2.16602 -2.5 2.49902 -3.5s1.16602 -2.16699 2.49902 -3.5c0 -0.666992 0.333008 -1.33398 1 -2.00098l3 -9v-1zM609.003 520.001h-128c-9.33301 0 -17.333 3.33301 -24 10s-10 14.667 -10 24
v128h-294v-614h456v452z" />
    <glyph glyph-name="downloadCircle" unicode="&#xe0253;" 
d="M460 750c52 0 100.667 -9.83301 146 -29.5s85 -46.5 119 -80.5s60.833 -73.667 80.5 -119s29.5 -94 29.5 -146s-9.83301 -100.667 -29.5 -146s-46.5 -85 -80.5 -119s-73.667 -60.833 -119 -80.5s-94 -29.5 -146 -29.5s-100.667 9.83301 -146 29.5s-85 46.5 -119 80.5
s-60.833 73.667 -80.5 119s-29.5 94 -29.5 146s9.83301 100.667 29.5 146s46.5 85 80.5 119s73.667 60.833 119 80.5s94 29.5 146 29.5zM538 501h89l-89 88v-88zM637 463h-129c-4.66699 0 -7 2.66699 -7 8v129h-198h-1h-12c-4.66699 0 -7 -2.66699 -7 -8v-13v-408v-1v-12
c0 -5.33301 2.33301 -8 7 -8h13h314h13c4.66699 0 7 2.66699 7 8v13v292zM507 322c4 4 8.83301 6 14.5 6s10.5 -2 14.5 -6s6 -8.83301 6 -14.5s-2 -10.5 -6 -14.5l-62 -62c-2 -2 -4.33301 -3.33301 -7 -4c-2.66699 -1.33301 -5 -2 -7 -2s-4.33301 0.666992 -7 2l-6 3
c0 0.666992 -0.333008 1 -1 1l-62 62c-4 4 -6 8.83301 -6 14.5s2 10.5 6 14.5s8.83301 6 14.5 6s10.5 -2 14.5 -6l27 -27v141c0 6 2 11 6 15s8.66699 6 14 6s10 -2 14 -6s6 -9 6 -15v-141z" />
    <glyph glyph-name="documents" unicode="&#xe0254;" horiz-adv-x="785" 
d="M700 584l0.000976562 -444c0 -8 -2.83301 -14.833 -8.5 -20.5s-12.5 -8.5 -20.5 -8.5h-82v-82c0 -8 -2.83301 -14.833 -8.5 -20.5s-12.5 -8.5 -20.5 -8.5h-446c-8 -0 -14.833 2.83301 -20.5 8.5s-8.5 12.5 -8.5 20.5v581c0 8 2.83301 14.833 8.5 20.5s12.5 8.5 20.5 8.5
h81v82c0 8 2.83301 14.833 8.5 20.5s12.5 8.5 20.5 8.5h309h2c1.33301 -0.666992 2.66602 -1 3.99902 -1s2.66602 -0.333008 3.99902 -1c0.666992 0 1.33398 -0.333008 2.00098 -1c2.66699 -1.33301 5.66699 -3.33301 9 -6l137 -137c2.66699 -2 4.66699 -4.66699 6 -8
c0 -0.666992 0.166992 -1.16699 0.5 -1.5s0.5 -0.833008 0.5 -1.5c0.666992 -2 1 -4.66699 1 -8zM531.001 444h-108c-8 0 -14.833 2.83301 -20.5 8.5s-8.5 12.5 -8.5 20.5v108h-251v-523h388v386zM642.001 554h-109c-8 0 -14.833 2.83301 -20.5 8.5s-8.5 12.834 -8.5 21.501
v108h-251v-53h170h2c2 0 4.33301 -0.666992 7 -2h3c4 -2.66699 6.66699 -4.66699 8 -6l138 -138c2 -2.66699 3.66699 -5.33398 5 -8.00098c0.666992 -0.666992 1 -1.66699 1 -3c1.33301 -2.66699 2 -5 2 -7v-2v-304h53v385z" />
    <glyph glyph-name="documentsCircle" unicode="&#xe0255;" 
d="M460 750c52 0 100.667 -9.83301 146 -29.5s85 -46.5 119 -80.5s60.833 -73.667 80.5 -119s29.5 -94 29.5 -146s-9.83301 -100.667 -29.5 -146s-46.5 -85 -80.5 -119s-73.667 -60.833 -119 -80.5s-94 -29.5 -146 -29.5s-100.667 9.83301 -146 29.5s-85 46.5 -119 80.5
s-60.833 73.667 -80.5 119s-29.5 94 -29.5 146s9.83301 100.667 29.5 146s46.5 85 80.5 119s73.667 60.833 119 80.5s94 29.5 146 29.5zM564 534h76l-76 76v-76zM340 568h127.001c5.33301 0 10.666 -1 15.999 -3c5.33301 -2.66699 9.33301 -5 12 -7l13 -12l22 -22v95h-182
c-4 0 -6.66699 -2.33301 -8 -7v-44zM484.001 531v-77h77zM563.001 150c4.66699 0 7 2.33301 7 7v264h-103c-4 0 -7.66699 1.66699 -11 5s-5 7.33301 -5 12v102h-182c-4.66699 0 -7 -2.33301 -7 -7v-366v-10c0 -4.66699 2.33301 -7 7 -7h294zM641.001 229
c5.33301 0 8 2.33301 8 7v265h-96l31 -30c2 -2.66699 3.83301 -5 5.5 -7s3.16699 -4.33301 4.5 -7s2.33301 -5 3 -7s1 -4.66699 1 -8v-4v-209h18h25z" />
    <glyph glyph-name="edit" unicode="&#xe0256;" 
d="M357 670l-192 -192l-58 58c-14.667 14.667 -22 32.667 -22 54c0 20.667 7.33301 39 22 55l83 83c16 14.667 34.333 22 55 22c21.333 0 39.333 -7.33301 54 -22zM747 24l88 -24l-25 88l-40 143l-6 25c-3.33301 8 -7 13.667 -11 17l-351 352l-18 18l-53 -53l399 -399l23 23
l29 -106l-55 -55l-106 29l78 78l-399 399l-108 -108l18 -18l352 -351c3.33301 -4 9 -7.66699 17 -11l25 -6z" />
    <glyph glyph-name="editCircle" unicode="&#xe0257;" 
d="M460 750c52 0 100.667 -9.83301 146 -29.5s85 -46.5 119 -80.5s60.833 -73.667 80.5 -119s29.5 -94 29.5 -146s-9.83301 -100.667 -29.5 -146s-46.5 -85 -80.5 -119s-73.667 -60.833 -119 -80.5s-94 -29.5 -146 -29.5s-100.667 9.83301 -146 29.5s-85 46.5 -119 80.5
s-60.833 73.667 -80.5 119s-29.5 94 -29.5 146s9.83301 100.667 29.5 146s46.5 85 80.5 119s73.667 60.833 119 80.5s94 29.5 146 29.5zM279 451l105 105l-32 32c-7.33301 8 -17 12 -29 12s-22 -4 -30 -12l-46 -46c-8 -8 -12 -18 -12 -30s4 -22 12 -30zM647 187
l-12.999 49.001l-22 79l-4 13c-0.666992 3.33301 -2.33398 6.33301 -5.00098 9l-194 194l-10 10l-29 -29l220 -220l6 7l16 -54c0 -0.666992 0.666992 -1.66699 2 -3l-21 -21c-1.33301 1.33301 -2.33301 2 -3 2l-54 15l37 37l-220 220l-59 -59l10 -10l193 -194
c4 -2.66699 7.33301 -4.33398 10 -5.00098l13 -4l79 -22z" />
    <glyph glyph-name="attachment" unicode="&#xe0258;" horiz-adv-x="951" 
d="M803 364c20 -20 35.498 -43.001 46.498 -69.001s16.5 -53.333 16.5 -82s-5.5 -56 -16.5 -82s-26.5 -48.667 -46.5 -68c-20.667 -21.333 -44 -37.166 -70 -47.499s-53 -15.5 -81 -15.5c-27.333 0 -54 5.16699 -80 15.5s-49.667 26.166 -71 47.499l-370 370
c-15.333 14.667 -26.833 31.334 -34.5 50.001s-11.5 38.667 -11.5 60c0 42.667 15.333 79.334 46 110.001c30 30 66.333 45 109 45c42 0 78.667 -15 110 -45l371 -371c9.33301 -10 16.333 -20.833 21 -32.5s7 -23.834 7 -36.501s-2.33301 -24.834 -7 -36.501
s-11.667 -22.5 -21 -32.5c-19.333 -19.333 -42.166 -29 -68.499 -29s-49.166 9.66699 -68.499 29l-234 234c-7.33301 7.33301 -11 16.333 -11 27s3.66699 20 11 28c7.33301 7.33301 16.5 11 27.5 11s20.167 -3.66699 27.5 -11l233 -233c4 -4 8.66699 -6 14 -6s10 2 14 6
c3.33301 3.33301 5 7.83301 5 13.5s-1.66699 10.167 -5 13.5l-370 370c-15.333 15.333 -33.833 23 -55.5 23s-40.167 -7.66699 -55.5 -23c-7.33301 -7.33301 -12.833 -15.666 -16.5 -24.999s-5.5 -19 -5.5 -29c0 -22 7.33301 -40.333 22 -55l371 -371
c13.333 -13.333 28.333 -23.333 45 -30s33.667 -10 51 -10s34.5 3.33301 51.5 10s32.167 16.667 45.5 30c26 27.333 39 59.333 39 96s-13 68.667 -39 96l-372 371c-7.33301 8 -11 17.167 -11 27.5s3.66699 19.5 11 27.5c8 7.33301 17.333 11 28 11s20 -3.66699 28 -11
l370 -371v0z" />
    <glyph glyph-name="attachmentCircle" unicode="&#xe0259;" 
d="M460 750c52 0 100.667 -9.83301 146 -29.5s85 -46.5 119 -80.5s60.833 -73.667 80.5 -119s29.5 -94 29.5 -146s-9.83301 -100.667 -29.5 -146s-46.5 -85 -80.5 -119s-73.667 -60.833 -119 -80.5s-94 -29.5 -146 -29.5s-100.667 9.83301 -146 29.5s-85 46.5 -119 80.5
s-60.833 73.667 -80.5 119s-29.5 94 -29.5 146s9.83301 100.667 29.5 146s46.5 85 80.5 119s73.667 60.833 119 80.5s94 29.5 146 29.5zM649 189c23.333 24.667 35.001 53.6621 35.001 86.9951c0 34 -11.667 63.333 -35 88l-214 213c-4 4.66699 -9.16699 7 -15.5 7
s-11.5 -2.33301 -15.5 -7c-4.66699 -4.66699 -7 -10 -7 -16s2.33301 -11.333 7 -16l213 -213c15.333 -15.333 23 -34 23 -56c0 -21.333 -7.66699 -39.666 -23 -54.999s-33.833 -23 -55.5 -23s-40.167 7.66699 -55.5 23l-213 213c-8.66699 8.66699 -13 19.334 -13 32.001
c0 13.333 4.33301 24 13 32c8 8.66699 18.333 13 31 13s23.334 -4.33301 32.001 -13l214 -213c5.33301 -6 5.33301 -11.667 0 -17c-4.66699 -4.66699 -10.334 -4.66699 -17.001 0l-134 135c-4 4.66699 -9 7 -15 7s-11.333 -2.33301 -16 -7s-7 -10 -7 -16
s2.33301 -11.333 7 -16l134 -134c10.667 -11.333 23.834 -17 39.501 -17s28.834 5.66699 39.501 17c11.333 10.667 17 23.834 17 39.501s-5.66699 28.834 -17 39.501l-213 214c-8.66699 8 -18.5 14.333 -29.5 19s-22.5 7 -34.5 7s-23.333 -2.33301 -34 -7
s-20.334 -11 -29.001 -19c-17.333 -17.333 -26 -38.666 -26 -63.999c0 -24.667 8.66699 -45.667 26 -63l214 -214c11.333 -11.333 24.666 -20 39.999 -26s31 -9 47 -9c15.333 0 30.666 3 45.999 9s29 14.667 41 26z" />
    <glyph glyph-name="print" unicode="&#xe0260;" horiz-adv-x="926" 
d="M807 482c9.33301 0 17.335 -3.50098 24.002 -10.501s10 -15.167 10 -24.5v-309c0 -9.33301 -3.33301 -17.333 -10 -24s-14.667 -10 -24 -10h-62v-70c0 -9.33301 -3.33301 -17.333 -10 -24s-14.667 -10 -24 -10h-496c-9.33301 0 -17.333 3.33301 -24 10s-10 14.667 -10 24
v70h-62c-9.33301 0 -17.333 3.33301 -24 10s-10 14.667 -10 24v309c0 9.33301 3.33301 17.5 10 24.5s14.667 10.5 24 10.5h62v234c0 9.33301 3.33301 17.333 10 24s14.667 10 24 10h334c3.33301 0 5.66602 -0.333008 6.99902 -1c3.33301 0 6 -1 8 -3
c1.33301 0 2 -0.333008 2 -1l4 -2c1.33301 -0.666992 2.66602 -1.66699 3.99902 -3l161 -161c1.33301 -1.33301 2.33301 -2.66602 3 -3.99902l2 -4c0.666992 0 1 -0.666992 1 -2c2 -2 3 -4.66699 3 -8c0.666992 -1.33301 1 -3.33301 1 -6v-73h62zM677.002 287.999h-428v-219
h428v219zM677.002 519.999h-128c-9.33301 0 -17.333 3.5 -24 10.5s-10 15.167 -10 24.5v127h-266v-200h428v38zM746.002 352.999c9.33301 0 17.333 3.33301 24 10s10 14.667 10 24s-3.33301 17.333 -10 24s-14.667 10 -24 10s-17.333 -3.33301 -24 -10s-10 -14.667 -10 -24
s3.33301 -17.333 10 -24s14.667 -10 24 -10zM625.002 197.999h-325v51h325v-51zM625.002 117.999h-325v50h325v-50z" />
    <glyph glyph-name="printCircle" unicode="&#xe0261;" 
d="M559 251h-194v30h194v-30zM460 750c52 0 100.667 -9.83301 146 -29.5s85 -46.5 119 -80.5s60.833 -73.667 80.5 -119s29.5 -94 29.5 -146s-9.83301 -100.667 -29.5 -146s-46.5 -85 -80.5 -119s-73.667 -60.833 -119 -80.5s-94 -29.5 -146 -29.5
s-100.667 9.83301 -146 29.5s-85 46.5 -119 80.5s-60.833 73.667 -80.5 119s-29.5 94 -29.5 146s9.83301 100.667 29.5 146s46.5 85 80.5 119s73.667 60.833 119 80.5s94 29.5 146 29.5zM507 531h80l-80 80v-80zM310 469h295.999v25h-118
c-5.33301 0 -9.66602 1.83301 -12.999 5.5s-5 8.16699 -5 13.5v117h-160v-161zM609.999 325h-296v-173h296v173zM686.999 418c0 5.33301 -1.83301 9.83301 -5.5 13.5s-8.16699 5.5 -13.5 5.5h-412c-5.33301 0 -9.83301 -1.83301 -13.5 -5.5s-5.5 -8.16699 -5.5 -13.5v-185
c0 -5.33301 1.83301 -9.83301 5.5 -13.5s8.16699 -5.5 13.5 -5.5h20v111c0 10.667 3.66699 19.667 11 27s16.333 11 27 11h296c10.667 0 19.667 -3.66699 27 -11s11 -16.333 11 -27v-111h20c5.33301 0 9.83301 1.83301 13.5 5.5s5.5 8.16699 5.5 13.5v185zM648.999 412
c12.667 0 19 -6.33301 19 -19c0 -5.33301 -1.83301 -9.66602 -5.5 -12.999s-8.16699 -5 -13.5 -5s-9.66602 1.66699 -12.999 5s-5 7.66602 -5 12.999s1.66699 9.83301 5 13.5s7.66602 5.5 12.999 5.5zM558.999 202h-194v31h194v-31z" />
    <glyph glyph-name="save" unicode="&#xe0262;" 
d="M804 750c8.66699 0 16 -3 22 -9s9 -13.333 9 -22v-688c0 -8.66699 -3 -16 -9 -22s-13.333 -9 -22 -9h-612c-8.66699 0 -16 3 -22 9l-76 76c-6 6 -9 13.333 -9 22v612c0 8.66699 3 16 9 22s13.333 9 22 9h688zM667 277c0 8 -2.16895 15 -6.50195 21s-10.166 9 -17.499 9
h-366c-7.33301 0 -13.166 -3 -17.499 -9s-6.5 -13 -6.5 -21v-215c0 -8.66699 2.16699 -15.834 6.5 -21.501s10.166 -8.5 17.499 -8.5h366c6.66699 0 12.334 2.83301 17.001 8.5s7 12.834 7 21.501v215zM697.998 662c0 8.66699 -3 16 -9 22s-13.333 9 -22 9h-414
c-8.66699 0 -16 -3 -22 -9s-9 -13.333 -9 -22v-199c0 -8.66699 3 -16 9 -22s13.333 -9 22 -9h414c8.66699 0 16 2.83301 22 8.5s9 13.167 9 22.5v199zM318.998 238h76v-138h-76v138z" />
    <glyph glyph-name="saveCircle" unicode="&#xe0263;" 
d="M561 337c8 0 12 -5.33301 12 -16v-118c0 -11.333 -4 -17 -12 -17h-202c-8 0 -12 5.66699 -12 17v118c0 10.667 4 16 12 16h202zM424 299h-42v-76h42v76zM573 550c11.333 0 17 -5.66699 17 -17v-110c0 -10.667 -5.66699 -16 -17 -16h-226c-11.333 0 -17 5.33301 -17 16
v110c0 11.333 5.66699 17 17 17h226zM459 750c52 0 100.833 -9.83301 146.5 -29.5s85.5 -46.5 119.5 -80.5s60.833 -73.667 80.5 -119s29.5 -93.666 29.5 -144.999c0 -52 -9.83301 -100.833 -29.5 -146.5s-46.5 -85.5 -80.5 -119.5s-73.833 -60.833 -119.5 -80.5
s-94.5 -29.5 -146.5 -29.5c-51.333 0 -99.666 9.83301 -144.999 29.5s-85 46.5 -119 80.5s-60.833 73.833 -80.5 119.5s-29.5 94.5 -29.5 146.5c0 51.333 9.83301 99.666 29.5 144.999s46.5 85 80.5 119s73.667 60.833 119 80.5s93.666 29.5 144.999 29.5zM666 564
c0 11.333 -5.66699 17 -17 17h-379c-10.667 0 -16 -5.66699 -16 -17v-336c0 -6 1.33301 -10.333 4 -13l42 -41c2.66699 -3.33301 7 -5 13 -5h336c11.333 0 17 5.66699 17 17v378z" />
    <glyph glyph-name="editdoc" unicode="&#xe0264;" horiz-adv-x="784" 
d="M220 256c8 0 14.833 -3 20.5 -9s8.5 -13 8.5 -21s-2.83301 -14.833 -8.5 -20.5s-12.5 -8.5 -20.5 -8.5h-2c-8.66699 0 -15.834 2.83301 -21.501 8.5s-8.5 12.5 -8.5 20.5s2.83301 15 8.5 21s12.834 9 21.501 9h2zM301 256c8 0 15 -3 21 -9s9 -13 9 -21
s-3 -14.833 -9 -20.5s-13 -8.5 -21 -8.5h-3c-8 0 -14.833 2.83301 -20.5 8.5s-8.5 12.5 -8.5 20.5s2.83301 15 8.5 21s12.5 9 20.5 9h3zM464 256c8 0 14.833 -3 20.5 -9s8.5 -13 8.5 -21s-2.83301 -14.833 -8.5 -20.5s-12.5 -8.5 -20.5 -8.5h-2
c-8.66699 0 -16 2.83301 -22 8.5s-9 12.5 -9 20.5s3 15 9 21s13.333 9 22 9h2zM690 344c6 -6 9.00098 -12.999 9.00098 -20.999l-1 -294c0 -8 -2.83301 -14.833 -8.5 -20.5s-12.5 -8.5 -20.5 -8.5h-451c-8.66699 0 -16 3 -22 9c-5.33301 5.33301 -8 12 -8 20v74h-73
c-8.66699 0 -15.834 2.83301 -21.501 8.5s-8.5 12.834 -8.5 21.501v588c0 8 2.83301 14.833 8.5 20.5s12.834 8.5 21.501 8.5h311c2.66699 0 4.66699 -0.333008 6 -1c2 0 4.33301 -0.666992 7 -2c0.666992 0 1 -0.166992 1 -0.5s0.333008 -0.5 1 -0.5
c1.33301 -0.666992 3.33301 -2.33398 6 -5.00098l140 -139c1.33301 -1.33301 2.66602 -3.33301 3.99902 -6c0.666992 -0.666992 1 -1.33398 1 -2.00098c1.33301 -1.33301 2 -2.5 2 -3.5s0.333008 -2.16699 1 -3.5c0 -1.33301 0.166992 -2.33301 0.5 -3s0.5 -1.66699 0.5 -3
v-228h73c8 0 15 -3 21 -9zM537.001 162.001v390h-111c-8 0 -14.833 2.83301 -20.5 8.5s-8.5 12.5 -8.5 20.5v110h-253v-529h393zM640.001 294.001l-44 0.000976562v-161c0 -8.66699 -3 -15.834 -9 -21.501s-13 -8.5 -21 -8.5h-319v-44h393v235zM383.001 256.002
c8 0 14.833 -3 20.5 -9s8.5 -13 8.5 -21s-2.83301 -14.833 -8.5 -20.5s-12.5 -8.5 -20.5 -8.5h-4c-8 0 -14.833 2.83301 -20.5 8.5s-8.5 12.5 -8.5 20.5s2.83301 15 8.5 21s12.5 9 20.5 9h4z" />
    <glyph glyph-name="editdocCircle" unicode="&#xe0265;" 
d="M322 307c5.33301 0 9.66602 -1.66699 12.999 -5s5 -7.66602 5 -12.999s-1.66699 -9.66602 -5 -12.999s-7.66602 -5 -12.999 -5h-1c-5.33301 0 -9.66602 1.66699 -12.999 5s-5 7.66602 -5 12.999s1.66699 9.66602 5 12.999s7.66602 5 12.999 5h1zM385 307
c5.33301 0 9.66602 -1.66699 12.999 -5s5 -7.66602 5 -12.999s-1.66699 -9.66602 -5 -12.999s-7.66602 -5 -12.999 -5h-2c-5.33301 0 -9.66602 1.66699 -12.999 5s-5 7.66602 -5 12.999s1.66699 9.66602 5 12.999s7.66602 5 12.999 5h2zM460 750
c51.333 0 99.833 -9.83301 145.5 -29.5s85.5 -46.5 119.5 -80.5s60.833 -73.667 80.5 -119s29.5 -94 29.5 -146c0 -51.333 -9.83301 -99.833 -29.5 -145.5s-46.5 -85.5 -80.5 -119.5s-73.833 -60.833 -119.5 -80.5s-94.167 -29.5 -145.5 -29.5
c-52 -0 -100.667 9.83301 -146 29.5s-85 46.5 -119 80.5s-60.833 73.833 -80.5 119.5s-29.5 94.167 -29.5 145.5c0 52 9.83301 100.667 29.5 146s46.5 85 80.5 119s73.667 60.833 119 80.5s94 29.5 146 29.5zM483 534h77l-77 76v-76zM262 236c0 -4.66699 2.33301 -7 7 -7
h293c4.66699 0 7 2.33301 7 7v266h-102c-10.667 0 -16 5.33301 -16 16v101h-182c-4.66699 0 -7 -2.33301 -7 -7v-376zM648 201l-1 153c0 5.33301 -2 8 -6 8h-44v-145c0 -10.667 -5.33301 -16 -16 -16h-241v-43c0 -4.66699 2.66699 -7 8 -7h293c4.66699 0 7 2.33301 7 7v43z
M447 307c5.33301 0 9.66602 -1.66699 12.999 -5s5 -7.66602 5 -12.999s-1.66699 -9.66602 -5 -12.999s-7.66602 -5 -12.999 -5h-2c-5.33301 0 -9.66602 1.66699 -12.999 5s-5 7.66602 -5 12.999s1.66699 9.66602 5 12.999s7.66602 5 12.999 5h2zM509 307
c5.33301 0 9.66602 -1.66699 12.999 -5s5 -7.66602 5 -12.999s-1.66699 -9.66602 -5 -12.999s-7.66602 -5 -12.999 -5h-1c-5.33301 0 -9.66602 1.66699 -12.999 5s-5 7.66602 -5 12.999s1.66699 9.66602 5 12.999s7.66602 5 12.999 5h1z" />
    <glyph glyph-name="adddoc" unicode="&#xe0266;" horiz-adv-x="784" 
d="M430 386c8 0 14.833 -2.83301 20.5 -8.5s8.5 -12.5 8.5 -20.5c0 -8.66699 -2.83301 -15.834 -8.5 -21.501s-12.5 -8.5 -20.5 -8.5h-61v-59c0 -8.66699 -2.83301 -16 -8.5 -22s-12.5 -9 -20.5 -9c-8.66699 0 -15.834 3 -21.501 9s-8.5 13.333 -8.5 22v59h-59
c-8.66699 0 -15.834 2.83301 -21.501 8.5s-8.5 12.834 -8.5 21.501c0 8 2.83301 14.833 8.5 20.5s12.834 8.5 21.501 8.5h59v61c0 8 2.83301 14.833 8.5 20.5s12.834 8.5 21.501 8.5c8 0 14.833 -2.83301 20.5 -8.5s8.5 -12.5 8.5 -20.5v-61h61zM690 344
c6 -5.33301 9.00195 -12 9.00195 -20l-1 -295c0 -8 -2.83301 -14.833 -8.5 -20.5s-12.5 -8.5 -20.5 -8.5h-452c-8 0 -14.667 2.66699 -20 8c-6 6 -9 13 -9 21v74h-74c-8 0 -14.833 2.83301 -20.5 8.5s-8.5 12.5 -8.5 20.5v589c0 8 2.83301 14.833 8.5 20.5
s12.5 8.5 20.5 8.5h313c2 0 3.66699 -0.333008 5 -1h1c0.666992 0 3 -0.666992 7 -2l1 -1c3.33301 -1.33301 5.33301 -3 6 -5l139 -139c1.33301 -1.33301 2.16602 -2.33301 2.49902 -3s1.16602 -1.66699 2.49902 -3v-2c2 -2 3 -4.33301 3 -7
c0 -1.33301 0.166992 -2.33301 0.5 -3s0.5 -1.66699 0.5 -3v-228h74c8.66699 0 15.667 -3 21 -9zM536.002 162v390h-109c-8 0 -15 2.83301 -21 8.5s-9 12.5 -9 20.5v110h-254v-529h393zM640.002 294h-45v-162c0 -8 -3 -14.833 -9 -20.5s-13 -8.5 -21 -8.5h-318v-44h393v235z
" />
    <glyph glyph-name="adddocCircle" unicode="&#xe0267;" 
d="M491 393c5.33301 0 9.66699 -1.66602 13 -4.99902s5 -7.66602 5 -12.999s-1.66699 -9.66602 -5 -12.999c-4.66699 -3.33301 -9 -5 -13 -5h-58v-58c0 -4.66699 -1.66699 -8.66699 -5 -12c-3.33301 -4 -7.66602 -6 -12.999 -6c-4.66699 0 -8.66699 1.66699 -12 5
s-5 7.66602 -5 12.999v58h-58c-5.33301 0 -9.66602 1.66699 -12.999 5s-5 7.66602 -5 12.999s1.66699 9.66602 5 12.999s7.66602 5 12.999 5h58v58c0 4.66699 1.66699 8.66699 5 12s7.33301 5 12 5c5.33301 0 9.66602 -1.66699 12.999 -5s5 -7.33301 5 -12v-58h58z
M460.001 750.001c52 0 100.833 -9.83301 146.5 -29.5s85.334 -46.5 119.001 -80.5s60.334 -73.667 80.001 -119s29.5 -94 29.5 -146s-9.83301 -100.833 -29.5 -146.5s-46.334 -85.334 -80.001 -119.001s-73.334 -60.334 -119.001 -80.001s-94.5 -29.5 -146.5 -29.5
s-100.833 9.83301 -146.5 29.5s-85.334 46.334 -119.001 80.001s-60.334 73.334 -80.001 119.001s-29.5 94.5 -29.5 146.5s9.83301 100.667 29.5 146s46.334 85 80.001 119s73.334 60.833 119.001 80.5s94.5 29.5 146.5 29.5zM484.001 533.001h76l-76 78v-78z
M261.001 237.001c0 -4.66699 2.33301 -7 7 -7h294c4.66699 0 7 2.33301 7 7v264h-102c-10.667 0 -16 5.33301 -16 16v102h-183c-4.66699 0 -7 -2.33301 -7 -7v-375zM649.001 201.001v153c0 4.66699 -2.66699 7 -8 7h-44v-143c0 -4.66699 -1.5 -8.66699 -4.5 -12
s-6.83301 -5 -11.5 -5h-240v-44c0 -5.33301 2.33301 -8 7 -8h293c5.33301 0 8 2.66699 8 8v44z" />
    <glyph glyph-name="fpo1" unicode="&#xe0318;" 
d="M797 98h38v-56h-750v56h38v39h45v264v13v27h-45v71l337 193l337 -193v-71h-45v-27v-13v-264h45v-39zM459 611l-177 -99h356zM342 137v264h-112v-264h112zM516 137v264h-112v-264h112zM690 137v264h-112v-264h112z" />
    <glyph glyph-name="fpo2" unicode="&#xe0319;" horiz-adv-x="1076" 
d="M350 377h91v-217h-91v217zM683 467h-291l145 81zM492 377h92v-217h-92v217zM538 750c62.667 0 121.5 -11.833 176.5 -35.5s103 -56 144 -97s73.333 -89 97 -144s35.5 -113.833 35.5 -176.5s-11.833 -121.5 -35.5 -176.5s-56 -103 -97 -144s-89 -73.333 -144 -97
s-113.833 -35.5 -176.5 -35.5s-121.5 11.833 -176.5 35.5s-103 56 -144 97s-73.333 89 -97 144s-35.5 113.833 -35.5 176.5s11.833 121.5 35.5 176.5s56 103 97 144s89 73.333 144 97s113.833 35.5 176.5 35.5zM846 129h-31v31h-37v217v9v23h37v58l-277 159l-277 -159v-58
h37v-23v-9v-217h-37v-31h-31v-47h616v47zM635 377h90v-217h-90v217z" />
    <glyph glyph-name="fpo3" unicode="&#xe0320;" 
d="M783 594c14 0 26.167 -5 36.5 -15s15.5 -22.333 15.5 -37v-34h-750v34c0 14.667 5 27 15 37s22.333 15 37 15h646zM85 420h750v-212c0 -14.667 -5.16699 -27 -15.5 -37s-22.5 -15 -36.5 -15h-646c-14.667 0 -27 5 -37 15s-15 22.333 -15 37v212zM200 257h312v29h-312v-29
z" />
    <glyph glyph-name="fpo4" unicode="&#xe0321;" horiz-adv-x="1076" 
d="M538 750c62.667 0 121.5 -11.833 176.5 -35.5s103 -56 144 -97s73.333 -89 97 -144s35.5 -113.833 35.5 -176.5s-11.833 -121.5 -35.5 -176.5s-56 -103 -97 -144s-89 -73.333 -144 -97s-113.833 -35.5 -176.5 -35.5s-121.5 11.833 -176.5 35.5s-103 56 -144 97
s-73.333 89 -97 144s-35.5 113.833 -35.5 176.5s11.833 121.5 35.5 176.5s56 103 97 144s89 73.333 144 97s113.833 35.5 176.5 35.5zM823 324h-566v-160c0 -11.333 3.5 -20.833 10.5 -28.5s16.167 -11.5 27.5 -11.5h488c11.333 0 20.833 3.83301 28.5 11.5
s11.5 17.167 11.5 28.5v160zM823 415c0 11.333 -3.83301 20.833 -11.5 28.5s-17.167 11.5 -28.5 11.5h-488c-11.333 0 -20.5 -3.83301 -27.5 -11.5s-10.5 -17.167 -10.5 -28.5v-24h566v24zM579 200h-235v22h235v-22z" />
    </font>
</defs>
</svg>
